<svg xmlns="http://www.w3.org/2000/svg" viewBox="0 0 296 45"><g opacity=".4" fill="#262626"><path d="M.941 36.524h49.265V.998H.941v35.526zm83.379 0h49.265V.998H84.32v35.526z"/><path d="M50.16 43.999h34.241V8.389H50.16v35.61zm27.273-7.077l.309-13.553h1.209l.304 13.553h-1.822zm-4.291 0l.311-13.553h1.208l.305 13.553h-1.824zm-4.27 0l.31-13.553h1.209l.305 13.553h-1.824zm-4.279 0l.31-13.553h1.208l.305 13.553h-1.823zm-4.281 0l.309-13.553h1.211l.303 13.553h-1.823zm-4.27 0l.309-13.553h1.21l.305 13.553h-1.824zM81.55 18.373l-.825 1.427-12.906-3.824-13.973 3.829-.827-1.425 14.807-3.575 13.724 3.568z"/></g><path fill-rule="evenodd" clip-rule="evenodd" fill="#262626" d="M141.568 10.821c0-.285-.003-.584-.006-.896a6.406 6.406 0 00-.05-.783 14.785 14.785 0 00-1.094-.034c-.238 0-.475.023-.708.068a2.083 2.083 0 00-.338.091.94.94 0 00-.259.135.673.673 0 00-.137.168c-.044.076-.086.16-.128.254a13.75 13.75 0 00-.23.547h-.295c.05-.319.086-.64.108-.963l.034-.484c.01-.134.023-.267.04-.4.098.008.228.014.395.023.626.029 1.253.044 1.88.045h3.242c.182 0 .362-.004.541-.011l.576-.023c.201-.008.438-.019.708-.034-.044.285-.085.591-.123.918-.037.31-.071.62-.102.93h-.293a3.456 3.456 0 01-.045-.247 3.038 3.038 0 00-.146-.57.64.64 0 00-.09-.174c-.076-.076-.227-.139-.451-.191-.226-.054-.533-.08-.923-.08a10.26 10.26 0 00-.979.034 4.927 4.927 0 00-.063.788 68.19 68.19 0 00-.005.89v3.839c0 .166.005.325.017.48.011.153.028.295.051.422a.796.796 0 00.089.281c.06.083.185.153.372.208.187.057.387.108.597.153v.294c-.12-.009-.239-.017-.359-.024l-.43-.022a13.47 13.47 0 00-.449-.017 17.237 17.237 0 00-1.284.017l-.433.022a14.78 14.78 0 00-.355.024v-.293c.211-.046.41-.097.598-.153.188-.057.312-.126.371-.208a.855.855 0 00.091-.282 4.61 4.61 0 00.051-.422c.011-.16.016-.32.016-.48l-.002-3.84zm5.699 1.689c0-.227-.008-.442-.024-.648a1.4 1.4 0 00-.112-.502c-.038-.09-.123-.147-.253-.175a13.37 13.37 0 01-.513-.117v-.27c.203.015.417.026.648.033.7.022 1.401.011 2.1-.033v.271c-.17.042-.341.081-.513.117-.132.028-.217.085-.254.175a1.443 1.443 0 00-.112.502 9.33 9.33 0 00-.023.648v.743c.113.015.269.025.467.034.199.008.419.011.66.011h.855c.241 0 .46-.004.66-.011a5.46 5.46 0 00.466-.034v-.743c0-.227-.007-.442-.023-.648a1.443 1.443 0 00-.112-.502c-.038-.09-.123-.147-.254-.175a12.966 12.966 0 01-.512-.117v-.271c.203.015.418.026.648.033.7.022 1.4.011 2.099-.033v.271c-.17.042-.341.081-.513.117-.132.028-.215.085-.253.175a1.444 1.444 0 00-.113.502c-.013.206-.022.421-.022.648v2.251c0 .227.008.439.023.636.015.199.054.362.113.491.038.09.121.156.252.196.132.042.302.08.513.118v.27a17.026 17.026 0 00-1.374-.044c-.458-.003-.916.012-1.373.044v-.27c.21-.038.38-.076.512-.118.132-.041.217-.107.255-.197.066-.156.103-.322.111-.491.016-.196.023-.41.023-.635v-.968a5.584 5.584 0 00-.466-.034c-.22-.008-.44-.011-.661-.01h-.854c-.241 0-.461.003-.661.01a5.584 5.584 0 00-.466.034v.968c0 .227.008.439.023.636a1.4 1.4 0 00.113.491c.037.09.122.156.253.196.131.042.302.08.513.118v.27a17.473 17.473 0 00-1.373-.044c-.459-.003-.917.012-1.374.044v-.27c.211-.038.381-.076.513-.118.131-.041.215-.107.253-.197.06-.127.098-.291.112-.491.016-.196.024-.41.024-.635l-.001-2.252zm9.143 1.239c-.127 0-.229.002-.304.004a2.333 2.333 0 00-.236.029v.981c0 .225.003.43.011.614.008.183.022.362.045.534.128.03.295.049.5.056.208.008.412.012.614.012a6.8 6.8 0 00.598-.029c.225-.018.391-.061.496-.129.105-.067.208-.172.31-.315.102-.142.212-.337.332-.585h.293c-.111.513-.19 1.031-.236 1.554a20.361 20.361 0 00-1.019-.038 27.57 27.57 0 00-.643-.007h-1.98a16.464 16.464 0 00-1.166.044v-.269c.211-.052.379-.096.507-.128.127-.034.214-.096.26-.187.06-.126.098-.291.112-.491.015-.197.023-.41.023-.634v-2.252c0-.226-.008-.438-.023-.637a1.401 1.401 0 00-.113-.49c-.037-.091-.122-.152-.252-.186l-.514-.128v-.275c.255.02.511.034.766.041.135.003.263.006.383.006h.675c.166 0 .366-.003.602-.006.237-.004.489-.009.755-.017a55.935 55.935 0 011.639-.024c-.107.438-.189.882-.247 1.33h-.271a5.793 5.793 0 00-.094-.389.8.8 0 00-.154-.298c-.076-.09-.21-.143-.405-.158a7.228 7.228 0 00-.551-.022h-.237c-.076 0-.156 0-.243.005-.086.004-.184.009-.293.017s-.243.015-.399.023c-.038.105-.06.276-.068.512-.008.231-.012.462-.012.694v.755c.084.013.165.023.243.026.079.004.179.007.298.007h.315c.166 0 .332-.008.502-.024.168-.014.295-.068.378-.157.067-.076.119-.151.157-.227.038-.074.08-.172.124-.292h.271a7.684 7.684 0 00-.057.922c0 .151.003.293.007.423.004.132.017.298.039.501h-.27a3.103 3.103 0 00-.113-.31.792.792 0 00-.168-.242c-.076-.076-.199-.119-.372-.13a6.856 6.856 0 00-.497-.017l-.318.003zm9.1.453v.461c0 .166.007.325.017.48.012.153.028.295.051.42a.773.773 0 00.091.281c.059.083.19.151.387.203.2.053.43.105.694.158v.293a66.262 66.262 0 00-.89-.045 15.367 15.367 0 00-1.69 0c-.284.014-.529.03-.732.045v-.293c.182-.045.363-.097.541-.158.15-.052.255-.12.315-.204a.819.819 0 00.09-.281c.023-.127.04-.269.051-.422a5.88 5.88 0 00.017-.479v-4.303a5.897 5.897 0 00-.017-.479 4.299 4.299 0 00-.051-.422.798.798 0 00-.09-.281c-.059-.082-.165-.15-.315-.203a7.282 7.282 0 00-.541-.159v-.291c.098.008.211.014.34.023.253.015.505.027.758.038.229.012.459.009.687-.01.143-.011.286-.024.429-.04.146-.014.289-.027.428-.038.535-.048 1.075 0 1.593.141.368.105.685.26.951.467.267.205.471.458.614.755.143.295.215.634.215 1.019 0 .277-.054.555-.159.836a2.186 2.186 0 01-.49.767 2.488 2.488 0 01-.851.557c-.345.143-.759.214-1.238.214-.173 0-.33-.013-.473-.041a6.037 6.037 0 01-.394-.088v-.3c.235.034.472.049.71.045.427 0 .758-.074.989-.225.215-.129.392-.312.514-.531.109-.204.173-.415.191-.632.019-.217.028-.396.028-.538 0-.469-.059-.836-.179-1.102-.121-.266-.272-.463-.451-.595a1.303 1.303 0 00-.591-.241 4.364 4.364 0 00-.615-.043 3.06 3.06 0 00-.415.033c-.161.02-.319.054-.474.101-.021.254-.034.509-.038.765-.005.166-.008.332-.008.5l.001 3.842zm5.472-1.692a8.48 8.48 0 00-.022-.637 1.422 1.422 0 00-.112-.489c-.038-.092-.123-.153-.255-.187-.17-.044-.34-.087-.511-.128v-.271c.202.015.417.026.647.033.7.022 1.401.011 2.1-.033v.271c-.21.051-.38.094-.513.128-.132.034-.214.094-.252.187a1.424 1.424 0 00-.113.489 9.684 9.684 0 00-.024.637v1.914c0 1.11.497 1.666 1.488 1.666.42 0 .758-.063 1.013-.191.256-.127.455-.299.598-.514.143-.213.237-.463.281-.749a5.7 5.7 0 00.068-.889v-1.238c0-.227-.009-.438-.023-.637a1.396 1.396 0 00-.113-.489c-.037-.092-.121-.153-.253-.187s-.302-.077-.512-.128v-.27c.149.015.315.026.495.033.179.008.396.011.653.011.255 0 .473-.004.653-.011s.345-.018.496-.033v.271c-.211.051-.381.094-.513.128-.131.034-.216.094-.253.187-.067.155-.106.32-.113.489a7.975 7.975 0 00-.023.637v1.238c0 .398-.038.767-.112 1.109a2.298 2.298 0 01-.388.884 1.854 1.854 0 01-.755.585c-.319.142-.718.213-1.199.213-.503 0-.913-.057-1.227-.168-.315-.113-.564-.265-.745-.456a1.494 1.494 0 01-.365-.677 3.447 3.447 0 01-.095-.816l-.001-1.912zm6.78 3.839a13.653 13.653 0 00-.067-.94l-.068-.603h.293c.059.188.131.356.215.502.081.145.172.273.27.378.105.12.263.217.473.293s.457.111.742.111c.128 0 .258-.009.389-.032.132-.024.251-.066.361-.13a.796.796 0 00.265-.248.687.687 0 00.102-.388 1.186 1.186 0 00-.068-.422.795.795 0 00-.203-.299 1.614 1.614 0 00-.338-.23 5.982 5.982 0 00-.474-.22l-.755-.326c-.405-.174-.694-.383-.866-.632a1.421 1.421 0 01-.26-.834c0-.293.063-.542.186-.749a1.52 1.52 0 01.467-.495 1.97 1.97 0 01.62-.271c.225-.057.439-.085.642-.085.337 0 .638.029.9.091l.789.18a6.45 6.45 0 00-.028 1.002c.004.106.009.221.018.349h-.294a3.931 3.931 0 00-.146-.474 1.12 1.12 0 00-.259-.382.99.99 0 00-.452-.244 1.956 1.956 0 00-.917-.034.931.931 0 00-.327.136.757.757 0 00-.231.247.747.747 0 00-.09.379c0 .292.064.506.192.642.137.141.302.253.484.327l.765.316c.218.089.421.184.61.286.187.101.349.217.491.349.137.131.246.28.325.445s.119.357.119.575c0 .315-.074.577-.221.788-.145.21-.321.378-.529.5a2.11 2.11 0 01-.659.26 3.12 3.12 0 01-.609.074c-.344 0-.688-.027-1.029-.079l-.423-.062-.405-.051m5.743-3.839c0-.227-.008-.442-.024-.648a1.42 1.42 0 00-.111-.502c-.038-.09-.123-.147-.253-.175a13.795 13.795 0 01-.514-.117v-.27c.204.015.418.026.648.033.701.022 1.402.011 2.101-.033v.271c-.211.051-.382.091-.513.117-.132.028-.217.085-.255.175a1.398 1.398 0 00-.111.502 8.729 8.729 0 00-.024.648v.743c.113.015.269.025.467.034.2.008.419.011.661.011h.854c.242 0 .461-.004.661-.011.196-.008.353-.019.466-.034v-.743c0-.227-.007-.442-.023-.648a1.443 1.443 0 00-.112-.502c-.038-.09-.123-.147-.255-.175a12.982 12.982 0 01-.511-.117v-.271c.203.015.417.026.647.033.7.022 1.4.011 2.099-.033v.271c-.21.051-.379.091-.512.117-.132.028-.215.085-.253.175a1.444 1.444 0 00-.113.502 9.352 9.352 0 00-.023.648v2.251c0 .227.009.439.023.636.015.199.054.362.113.491.038.09.121.156.253.196.132.042.302.08.512.118v.27a17.002 17.002 0 00-1.373-.044c-.458-.003-.916.012-1.373.044v-.27c.208-.038.379-.076.512-.118.132-.041.217-.107.254-.197.06-.127.096-.291.112-.491.016-.196.023-.41.023-.635v-.968a5.608 5.608 0 00-.467-.034 16.14 16.14 0 00-.66-.01h-.855c-.241 0-.46.003-.66.01a5.608 5.608 0 00-.467.034v.968c0 .227.008.439.024.636a1.4 1.4 0 00.112.491c.038.09.123.156.254.196.13.042.301.08.513.118v.27a17.473 17.473 0 00-1.373-.044c-.459-.003-.917.012-1.374.044v-.27c.21-.038.38-.076.513-.118.13-.041.215-.107.253-.197.06-.127.097-.291.111-.491.016-.196.024-.41.024-.635l-.001-2.252zm8.603 2.252c0 .227.008.438.024.636.014.2.052.362.112.491.038.089.123.152.254.186l.512.129v.27a16.425 16.425 0 00-.693-.034 25.7 25.7 0 00-.68-.011c-.196 0-.423.005-.682.011-.259.008-.491.019-.694.034v-.27c.212-.053.382-.097.514-.129.13-.034.215-.097.253-.186.06-.128.097-.291.111-.491.016-.198.024-.41.024-.636v-2.251c0-.227-.008-.438-.024-.638a1.393 1.393 0 00-.111-.488c-.038-.092-.123-.153-.253-.186a45.826 45.826 0 00-.514-.129v-.272c.204.015.434.027.694.034.647.023 1.296.011 1.942-.034v.271c-.21.052-.362.094-.456.129a.32.32 0 00-.196.186c-.067.154-.105.32-.112.488a8.481 8.481 0 00-.024.638l-.001 2.252zm.136-1.249l1.397-1.42c.247-.255.423-.435.529-.541.104-.104.159-.188.159-.248 0-.059-.059-.106-.176-.14a4.047 4.047 0 00-.434-.095v-.271c.196.015.366.027.513.034.147.008.307.011.48.011.217 0 .433-.004.647-.011.215-.007.415-.019.603-.034v.271c-.18.03-.33.061-.45.094-.12.034-.235.087-.338.158a3.148 3.148 0 00-.354.287c-.132.122-.299.281-.502.485l-1.114 1.104 1.676 1.958c.142.174.272.316.387.43.117.111.228.206.333.281.106.074.213.137.327.185.112.05.244.1.395.153v.27a13.842 13.842 0 00-.457-.04 4.564 4.564 0 00-1.12.04c-.18-.219-.338-.406-.472-.564a24.603 24.603 0 01-.361-.428l-1.668-1.969zm5.518-.44c0-.143 0-.298-.006-.467a8.264 8.264 0 00-.024-.497 8.085 8.085 0 00-.038-.438.885.885 0 00-.068-.287c-.038-.092-.142-.155-.309-.193-.17-.038-.359-.078-.57-.123v-.27c.203.015.435.027.699.034a27.22 27.22 0 001.565 0c.271-.007.507-.019.711-.034v.271c-.211.044-.4.085-.569.123s-.274.101-.309.193a.86.86 0 00-.068.287 9.765 9.765 0 00-.041.438c-.021.321-.03.642-.028.964V14.2c0 .142.002.298.006.467a11.161 11.161 0 00.064.936c.014.13.036.227.068.287.036.089.14.153.309.191l.569.124v.271a15.373 15.373 0 00-.711-.034 31.405 31.405 0 00-1.565 0c-.263.008-.496.019-.699.034v-.271c.211-.044.4-.085.57-.124.167-.038.271-.102.309-.191a.912.912 0 00.068-.287c.016-.132.028-.278.038-.44a15.598 15.598 0 00.03-.963l-.001-1.127zm4.099 0v-.45c0-.286-.02-.573-.061-.856a1.028 1.028 0 00-.074-.271.468.468 0 00-.142-.145 1.206 1.206 0 00-.225-.125 2.35 2.35 0 00-.512-.157v-.271c.09.015.227.027.415.034.188.008.379.011.575.011l.26-.005c.134-.005.266-.017.393-.041.271.315.532.61.783.884.252.274.513.552.783.838l1.148 1.205.513.534c.154.162.302.311.445.446h.046v-2.196c0-.227-.009-.438-.024-.638a1.417 1.417 0 00-.112-.488c-.038-.092-.142-.155-.311-.193a57.597 57.597 0 00-.568-.123v-.268c.15.015.325.027.524.034.447.016.894.016 1.34 0a8.23 8.23 0 00.5-.034v.271l-.513.128c-.132.034-.214.095-.252.187-.067.155-.105.32-.113.488a8.48 8.48 0 00-.023.638v2.218c.003.422.008.845.016 1.267.005.198.009.358.019.479h-.271c-.256-.293-.502-.572-.737-.839a40.724 40.724 0 00-.716-.783l-1.339-1.407c-.128-.136-.247-.261-.355-.378a12.52 12.52 0 01-.312-.339 35.021 35.021 0 01-.609-.67h-.043v2.703c0 .227.007.438.023.636.015.2.052.362.113.491.036.089.142.153.31.191.169.038.357.079.569.124v.271a8.532 8.532 0 00-.554-.034c-.465-.014-.93-.014-1.395 0a8.972 8.972 0 00-.529.034v-.271c.21-.044.399-.085.568-.124.168-.038.272-.102.31-.191.067-.156.105-.322.112-.491.015-.198.023-.41.023-.636l.002-1.688zM138.91 28.585c-.012-.36-.034-.72-.066-1.079l-.042-.438c-.009-.132-.02-.232-.026-.299h.293c.059.188.134.375.22.564.086.187.175.345.264.472.12.159.34.303.658.434.321.13.738.197 1.257.197.21 0 .413-.026.608-.08.183-.046.355-.128.506-.241.143-.109.258-.248.344-.422.087-.173.13-.378.13-.617a1.32 1.32 0 00-.147-.642 1.502 1.502 0 00-.394-.467 2.956 2.956 0 00-.563-.346 17.484 17.484 0 00-.654-.298l-.755-.327c-.495-.217-.887-.48-1.182-.787-.293-.308-.439-.697-.439-1.171 0-.381.073-.711.221-.989.145-.278.337-.509.573-.692.243-.186.518-.324.812-.41a3.24 3.24 0 01.928-.135 4.4 4.4 0 01.637.045c.198.03.391.066.581.113.186.043.368.089.546.135.176.044.351.082.523.111a2.995 2.995 0 00-.05.411c-.016.404-.003.809.039 1.211h-.293a8.62 8.62 0 00-.196-.581 1.47 1.47 0 00-.277-.478c-.159-.179-.38-.308-.67-.383a3.384 3.384 0 00-.85-.112c-.497 0-.883.116-1.16.349-.278.232-.417.585-.417 1.058 0 .234.038.428.112.585.076.158.171.293.288.4.117.109.249.199.399.27.151.072.305.141.463.208l.765.315c.264.114.519.232.772.355.251.125.477.271.677.44.197.17.359.369.478.603.12.232.179.514.179.845 0 .427-.085.784-.259 1.07a2.06 2.06 0 01-.653.68c-.262.17-.547.289-.85.357-.304.066-.584.1-.839.1a5.57 5.57 0 01-1.234-.138 9.745 9.745 0 00-1.257-.196m7.972-3.72a9.155 9.155 0 00-.057-1.194 2.695 2.695 0 00-.359-.024h-.349c-.097 0-.224.01-.378.029a.903.903 0 00-.411.153.672.672 0 00-.213.281 7.71 7.71 0 00-.193.483h-.293c.038-.226.066-.466.085-.725l.051-.739c.201.016.453.03.755.046.298.014.618.023.955.023h1.757c.616.001 1.233-.022 1.847-.069l-.061.389a9.986 9.986 0 00-.051.338c-.016.109-.03.224-.046.345l-.043.393h-.293a2.737 2.737 0 00-.095-.449c-.05-.166-.111-.278-.187-.34a.665.665 0 00-.298-.123 3.145 3.145 0 00-.513-.035h-.293c-.134 0-.236.009-.304.024-.023.219-.04.415-.051.591a8.698 8.698 0 00-.016.604v2.251c0 .226.007.438.021.635.016.2.054.362.114.491.038.09.141.154.309.192.17.038.359.078.569.123v.271a18.324 18.324 0 00-.704-.034 31.365 31.365 0 00-1.564 0c-.267.008-.502.019-.704.034v-.27l.568-.123c.17-.038.272-.103.31-.193.067-.156.105-.322.112-.491a7.91 7.91 0 00.023-.635v-2.252zm6.995 2.241a3.974 3.974 0 00-.362-.023h-1.12a3.82 3.82 0 00-.4.023l-.225.597a4.51 4.51 0 00-.091.254.846.846 0 00-.045.264c0 .053.025.098.073.134a.659.659 0 00.181.097c.071.026.154.047.247.068.094.018.186.038.277.061v.247a18.194 18.194 0 00-.524-.044 10.13 10.13 0 00-.761-.024 5.384 5.384 0 00-.568.024c-.13.013-.259.028-.389.044v-.247c.107-.015.212-.038.315-.068.107-.03.199-.068.282-.112.12-.06.214-.175.286-.345.073-.167.138-.324.198-.466l1.733-4.505h.271l1.858 4.562.17.377c.051.117.108.212.169.288.071.074.16.13.258.162.113.042.233.077.362.108v.247a1.821 1.821 0 00-.209-.017l-.303-.01-.333-.011a6.62 6.62 0 00-.281-.006c-.361 0-.657.004-.89.009a7.517 7.517 0 00-.541.035v-.247c.17-.03.338-.074.502-.129a.634.634 0 00.179-.097.162.162 0 00.073-.133.704.704 0 00-.061-.271 6.835 6.835 0 01-.095-.236l-.236-.61zm-.732-.474h.315c.059 0 .132-.007.213-.022l-.742-1.88h-.047l-.697 1.88c.082.015.169.022.258.022h.7zm5.27-1.767a9.473 9.473 0 00-.056-1.194 2.695 2.695 0 00-.359-.024h-.349c-.098 0-.225.01-.379.029a.903.903 0 00-.411.153.672.672 0 00-.213.281c-.069.159-.133.32-.192.483h-.293c.038-.226.064-.466.085-.725l.05-.739c.201.016.453.03.755.046.298.014.618.023.955.023h1.757c.616.001 1.233-.022 1.847-.069l-.061.389a9.986 9.986 0 00-.051.338c-.016.109-.029.224-.045.345l-.044.393h-.293a2.737 2.737 0 00-.095-.449c-.05-.166-.111-.278-.187-.34a.665.665 0 00-.298-.123 3.145 3.145 0 00-.513-.035h-.293c-.134 0-.236.009-.304.024-.022.219-.039.415-.05.591a9.368 9.368 0 00-.017.604v2.251c0 .226.008.438.022.635.016.2.053.362.113.491.038.09.141.154.309.192.17.038.359.078.569.123v.271a18.37 18.37 0 00-.703-.034 31.405 31.405 0 00-1.565 0c-.267.008-.501.019-.704.034v-.27l.568-.123c.17-.038.272-.103.31-.193.067-.156.105-.322.112-.491a7.91 7.91 0 00.023-.635v-2.252zm6.104 1.238a7.49 7.49 0 00-.304.006 2.098 2.098 0 00-.237.028v.981c0 .225.004.429.012.614.008.183.022.362.045.534.127.03.295.048.5.055.208.009.412.012.614.012.174 0 .372-.009.598-.028.225-.019.39-.061.495-.129.123-.085.228-.192.312-.315.101-.142.211-.338.33-.585h.293c-.111.513-.19 1.031-.236 1.554a20.361 20.361 0 00-1.019-.038 27.483 27.483 0 00-.642-.007h-1.981a15.203 15.203 0 00-1.166.044v-.268c.211-.052.379-.096.506-.129.128-.034.214-.096.26-.186.06-.127.098-.291.113-.491.015-.197.023-.41.023-.634v-2.253c0-.225-.008-.437-.024-.637a1.378 1.378 0 00-.112-.489c-.038-.092-.123-.152-.253-.186l-.513-.129v-.271a14.217 14.217 0 00.766.041c.136.003.264.006.383.006h.676c.165 0 .366-.003.602-.006.237-.004.488-.01.755-.017a55.935 55.935 0 011.639-.024c-.107.438-.189.882-.247 1.329h-.272a5.765 5.765 0 00-.094-.388.8.8 0 00-.154-.298c-.076-.091-.21-.143-.404-.159a7.228 7.228 0 00-.551-.022h-.238c-.076 0-.155.001-.243.005-.085.005-.183.009-.292.017-.133.009-.266.017-.399.023-.039.106-.06.277-.068.513-.009.236-.012.468-.012.693v.755c.084.014.164.024.243.027s.179.006.298.006h.315c.165 0 .332-.007.501-.023.169-.014.295-.068.378-.158.068-.075.119-.151.157-.227.047-.095.088-.192.125-.291h.271a7.684 7.684 0 00-.057.922c0 .151.002.293.006.422.004.132.017.298.04.502h-.27a3.484 3.484 0 00-.113-.31.784.784 0 00-.168-.243c-.076-.076-.199-.117-.374-.129a7.44 7.44 0 00-.495-.017l-.318-.002zm8.266-2.927c.008-.158.014-.302.023-.434.007-.129.011-.259.011-.388a2.631 2.631 0 00-.038-.524.977.977 0 00-.12-.298c-.059-.082-.187-.153-.378-.21a9.636 9.636 0 00-.602-.152v-.293c.203.024.422.041.66.052.235.009.451.017.646.017.076 0 .166-.004.271-.011.105-.009.207-.015.303-.023l.278-.024c.065-.006.131-.009.196-.01.105.255.205.487.299.699l.276.614c.091.198.177.393.264.579.087.189.175.387.264.597l.913 2.062c.091.196.166.368.23.514.064.145.122.276.176.388.051.112.102.214.151.303.049.091.096.186.141.281h.044c.091-.171.2-.394.328-.67.127-.272.266-.579.416-.917l.81-1.836c.389-.862.765-1.729 1.128-2.602a6.7 6.7 0 00.873.057c.198 0 .427-.007.685-.023.26-.014.491-.03.694-.044v.292c-.201.043-.4.094-.597.152-.189.057-.312.127-.372.21a.775.775 0 00-.102.354 5.907 5.907 0 00-.023.58v.372c0 .122.003.233.01.339l.159 3.378c.008.142.016.296.023.462.015.302.049.603.102.901a.84.84 0 00.089.281c.054.092.157.16.312.208.153.05.335.101.545.153v.293a25.655 25.655 0 00-.732-.044 15.367 15.367 0 00-1.69 0l-.432.022c-.119.006-.237.014-.356.024v-.294a7.2 7.2 0 00.597-.153c.189-.056.312-.125.373-.208.044-.075.077-.201.094-.378.02-.196.03-.394.029-.591a8.457 8.457 0 00-.024-.675l-.134-3.378-.024-.473a7.493 7.493 0 00-.034-.497h-.044c-.127.272-.25.541-.365.812a37 37 0 01-.355.8l-1.463 3.311-.48 1.08c-.115.263-.208.477-.274.642h-.17a17.076 17.076 0 00-.338-.816l-.362-.829-1.497-3.343c-.165-.369-.314-.695-.444-.981l-.312-.677h-.045c-.015.169-.027.338-.038.508-.011.174-.022.327-.028.463l-.113 3.378c-.007.094-.01.187-.01.281v.315c0 .232.007.445.023.635.014.193.047.33.101.412.06.083.184.152.372.208a7.2 7.2 0 00.597.153v.293a9.291 9.291 0 00-.687-.05 17.796 17.796 0 00-.766-.017c-.503 0-.957.023-1.362.068v-.294c.21-.052.41-.103.601-.153.193-.047.312-.116.366-.208a.862.862 0 00.091-.276c.024-.138.042-.278.056-.417.015-.153.026-.312.034-.478l.023-.473.134-3.381zm10.653 1.689c0-.226-.008-.437-.023-.637a1.422 1.422 0 00-.112-.489c-.038-.092-.123-.152-.255-.186l-.511-.129v-.271c.202.016.418.027.647.034.484.016.968.016 1.452 0 .23-.007.446-.018.648-.034v.271c-.21.053-.38.094-.513.129-.132.034-.214.094-.252.186a1.424 1.424 0 00-.113.489 9.038 9.038 0 00-.023.637v1.915c0 1.11.496 1.665 1.487 1.665.42 0 .758-.063 1.013-.19.255-.128.455-.299.598-.514.143-.213.237-.463.281-.748.045-.285.068-.582.068-.89v-1.238c0-.226-.009-.437-.023-.637a1.396 1.396 0 00-.113-.489c-.037-.092-.122-.152-.253-.186l-.512-.129v-.271c.149.016.315.027.495.034a16.85 16.85 0 001.306 0 7.54 7.54 0 00.497-.034v.271c-.211.053-.382.094-.514.129-.131.034-.216.094-.254.186a1.377 1.377 0 00-.111.489 8.475 8.475 0 00-.024.637v1.238c0 .399-.038.767-.112 1.109a2.279 2.279 0 01-.388.884c-.196.258-.457.46-.755.585-.319.142-.718.214-1.199.214-.503 0-.913-.057-1.227-.169-.316-.113-.564-.264-.745-.455a1.483 1.483 0 01-.364-.677 3.397 3.397 0 01-.096-.816v-1.913zm6.78 3.84c-.014-.36-.038-.674-.067-.94l-.068-.603h.293c.059.189.131.356.214.501.082.146.173.274.271.378.105.121.263.218.472.293.211.076.458.112.743.112.128 0 .258-.01.389-.032.132-.024.251-.067.362-.131a.8.8 0 00.264-.247.685.685 0 00.102-.389c0-.165-.024-.306-.068-.422a.811.811 0 00-.203-.298 1.614 1.614 0 00-.338-.23 5.992 5.992 0 00-.474-.221l-.755-.325c-.405-.174-.694-.383-.866-.632a1.421 1.421 0 01-.26-.834c0-.292.062-.542.187-.748.123-.208.278-.372.465-.495.189-.125.396-.216.621-.272.21-.054.425-.083.642-.085.337 0 .638.03.9.092.264.059.526.12.788.18a6.449 6.449 0 00-.026 1.002c.003.105.009.221.016.349h-.293a4.12 4.12 0 00-.146-.474 1.124 1.124 0 00-.259-.383.998.998 0 00-.452-.243 2.142 2.142 0 00-.529-.073 1.9 1.9 0 00-.389.039.926.926 0 00-.326.136.748.748 0 00-.231.247.744.744 0 00-.09.378c0 .293.063.507.192.642.127.136.289.244.484.327l.765.315c.218.091.421.186.61.287.187.102.349.217.491.349.137.132.246.28.325.446.079.165.119.356.119.574 0 .316-.074.578-.221.788-.145.21-.321.378-.529.5a2.063 2.063 0 01-.659.26 3.12 3.12 0 01-.609.074c-.344 0-.688-.027-1.029-.079l-.423-.061c-.135-.019-.27-.036-.405-.052m7.228-2.602a7.53 7.53 0 00-.304.006 2.08 2.08 0 00-.236.028v.981c0 .225.003.43.011.614.008.183.022.362.045.534.127.03.295.048.5.055.208.009.413.012.614.012.175 0 .372-.009.598-.028.225-.019.391-.061.495-.129a1.18 1.18 0 00.312-.315c.126-.186.237-.382.331-.585h.293c-.111.513-.19 1.031-.237 1.554a20.361 20.361 0 00-1.019-.038 27.483 27.483 0 00-.642-.007h-1.981a15.203 15.203 0 00-1.165.044v-.268c.211-.052.379-.096.506-.129.127-.034.213-.096.26-.186.06-.127.097-.291.111-.491.016-.197.024-.41.024-.634v-2.253c0-.225-.008-.437-.024-.637a1.399 1.399 0 00-.111-.489c-.038-.092-.123-.152-.253-.186l-.514-.129v-.271a14.554 14.554 0 00.767.041c.135.003.263.006.382.006h.676c.166 0 .366-.003.602-.006.237-.004.488-.01.755-.017a55.935 55.935 0 011.639-.024c-.107.438-.189.882-.247 1.329h-.271a5.765 5.765 0 00-.094-.388.8.8 0 00-.154-.298c-.076-.091-.211-.143-.405-.159a7.228 7.228 0 00-.551-.022h-.237c-.076 0-.156.001-.244.005-.085.005-.183.009-.292.017-.133.009-.266.017-.399.023-.039.106-.06.277-.068.513s-.012.468-.012.693v.755c.084.014.165.024.243.027.079.003.179.006.298.006h.315c.166 0 .332-.007.501-.023.169-.014.295-.068.378-.158.068-.075.12-.151.158-.227.047-.095.088-.192.124-.291h.271a7.684 7.684 0 00-.057.922c0 .151.003.293.006.422.004.132.017.298.04.502h-.27a3.484 3.484 0 00-.113-.31.784.784 0 00-.168-.243c-.076-.076-.199-.117-.373-.129a7.447 7.447 0 00-.496-.017l-.318-.002zm4.438-1.238c0-.226-.008-.437-.023-.637a1.421 1.421 0 00-.111-.489c-.038-.092-.123-.152-.255-.186l-.512-.129v-.271c.203.016.419.027.648.034.484.016.968.016 1.452 0 .23-.007.447-.018.648-.034v.271c-.21.053-.381.094-.513.129-.132.034-.214.094-.252.186a1.424 1.424 0 00-.113.489 9.038 9.038 0 00-.023.637v1.915c0 1.11.495 1.665 1.487 1.665.42 0 .758-.063 1.013-.19.255-.128.455-.299.598-.514.143-.213.236-.463.281-.748.046-.294.068-.592.067-.89v-1.238a9.09 9.09 0 00-.022-.637 1.396 1.396 0 00-.113-.489c-.037-.092-.122-.152-.253-.186l-.512-.129v-.271c.164.017.329.028.495.034a16.753 16.753 0 001.305 0c.181-.007.345-.018.497-.034v.271c-.212.053-.382.094-.514.129-.13.034-.215.094-.253.186a1.377 1.377 0 00-.111.489 8.475 8.475 0 00-.024.637v1.238c0 .399-.038.767-.112 1.109a2.266 2.266 0 01-.389.884c-.196.258-.456.46-.754.585-.319.142-.719.214-1.199.214-.503 0-.913-.057-1.227-.169-.316-.113-.564-.264-.746-.455a1.481 1.481 0 01-.363-.677 3.398 3.398 0 01-.097-.816v-1.913zm7.647.675c.014-.231.026-.434.034-.601.007-.17.009-.316.009-.445 0-.122-.009-.252-.026-.396a.84.84 0 00-.108-.337c-.059-.082-.17-.148-.332-.197a7.086 7.086 0 00-.557-.14v-.272c.202.024.404.036.601.04.199.003.396.006.592.006.158 0 .315-.006.473-.017s.281-.02.372-.028c.115.3.233.598.354.896.109.273.227.541.355.805l.8 1.745c.074.157.137.293.186.405.048.113.095.211.141.293h.044c.082-.158.179-.362.293-.618l.699-1.521c.151-.33.291-.649.423-.957.13-.308.261-.653.389-1.036.119.015.264.024.439.028.172.002.318.005.439.005.194 0 .388-.004.581-.011.191-.007.36-.019.512-.034v.272c-.186.038-.37.085-.552.14-.159.049-.266.115-.326.197a.527.527 0 00-.057.163c-.03.139-.045.28-.045.422v.147c.007.312.019.623.034.935l.078 1.463c.015.278.038.541.068.788.03.248.076.436.135.564.038.09.123.153.252.187l.514.128v.27a15.618 15.618 0 00-.648-.034 25.153 25.153 0 00-2.214.034v-.269c.211-.046.397-.085.563-.118.165-.034.27-.099.315-.197a.754.754 0 00.074-.26c.011-.097.017-.198.017-.304 0-.082-.003-.191-.006-.327a36.47 36.47 0 00-.017-.463l-.057-1.463a27.398 27.398 0 00-.028-.5 28.96 28.96 0 01-.028-.514h-.043c-.085.211-.159.395-.227.551a13.96 13.96 0 01-.191.43l-.89 1.926c-.195.443-.339.779-.432 1.008a33.35 33.35 0 01-.21.5h-.271a56.187 56.187 0 00-.292-.68 18.713 18.713 0 00-.315-.694l-.98-2.129a14.773 14.773 0 01-.129-.287 2.438 2.438 0 01-.085-.22l-.067-.192-.08-.214h-.044a19.297 19.297 0 00-.079 1.126l-.044 1.239c-.014.274-.022.547-.023.821 0 .123.002.238.006.349a.807.807 0 00.061.294c.038.09.14.154.305.192.164.038.352.077.563.124v.27a6.507 6.507 0 00-.609-.04 36.689 36.689 0 00-1.327 0 6.24 6.24 0 00-.563.04v-.27c.21-.053.396-.096.563-.128.164-.034.27-.097.315-.187.06-.127.109-.328.151-.598a8.52 8.52 0 00.085-.867l.067-1.238zm11.092.282c0-.42.087-.8.264-1.137.176-.338.41-.625.703-.862a3.3 3.3 0 01.998-.547c.371-.128.76-.193 1.153-.192.503 0 .939.084 1.308.249.366.164.666.385.9.658.232.274.406.585.518.935.113.349.17.708.17 1.076 0 .421-.09.808-.266 1.166a2.94 2.94 0 01-.703.918 3.307 3.307 0 01-2.152.81c-.51 0-.948-.09-1.312-.276a2.644 2.644 0 01-.895-.714 2.985 2.985 0 01-.518-.985 3.722 3.722 0 01-.168-1.099m3.006-2.252c-.676 0-1.169.189-1.48.566-.313.378-.467.902-.467 1.575 0 .337.031.667.094.991.064.326.174.614.328.864s.354.453.601.612c.248.156.557.236.925.236.337 0 .628-.057.872-.169.244-.111.447-.271.608-.477.162-.206.28-.448.355-.728.076-.28.113-.589.113-.926a4.45 4.45 0 00-.102-.963 2.475 2.475 0 00-.328-.814 1.637 1.637 0 00-.597-.56c-.246-.138-.554-.207-.922-.207m4.877 1.295c0-.226-.008-.437-.024-.637a1.399 1.399 0 00-.111-.489c-.038-.092-.123-.152-.254-.186l-.513-.129v-.271a14.217 14.217 0 00.767.041c.135.003.263.006.382.006h.676c.165 0 .366-.003.602-.006.237-.004.488-.01.753-.017a56.123 56.123 0 011.641-.024c-.107.438-.189.882-.247 1.33h-.271a3.316 3.316 0 00-.091-.379.889.889 0 00-.158-.309c-.076-.091-.21-.143-.406-.159a7.22 7.22 0 00-.55-.021h-.238c-.076 0-.155 0-.243.004-.085.004-.183.009-.292.017-.109.009-.243.015-.399.023-.038.106-.06.276-.068.513-.009.236-.012.467-.012.693v.755c.084.014.164.024.243.027.079.004.179.007.298.007h.315c.165 0 .332-.008.502-.024.168-.014.294-.068.377-.158a.925.925 0 00.157-.231c.039-.078.08-.174.125-.286h.271l-.041.506a5.812 5.812 0 00-.005.845c.008.135.019.3.034.496h-.27a3.103 3.103 0 00-.113-.31.792.792 0 00-.168-.242c-.076-.076-.199-.119-.373-.13a6.829 6.829 0 00-.496-.017h-.315c-.128 0-.229.003-.304.005a2.709 2.709 0 00-.237.028v.981c0 .226.008.438.024.635.014.2.053.362.111.491.038.09.145.156.321.196.177.042.362.081.558.119v.27a16.533 16.533 0 00-.703-.034 25.307 25.307 0 00-1.509 0c-.229.008-.444.019-.648.034v-.27c.211-.038.381-.076.513-.119.131-.041.216-.107.254-.196a1.41 1.41 0 00.111-.491c.016-.197.024-.41.024-.635v-2.252zm9.076-1.689v-.463c0-.164-.005-.325-.017-.479a4.299 4.299 0 00-.051-.422.791.791 0 00-.09-.281c-.059-.082-.166-.15-.315-.204a6.727 6.727 0 00-.542-.158v-.293c.204.015.447.031.733.045.285.016.555.024.81.024h.507c.227 0 .491-.004.801-.011.307-.009.632-.015.978-.023l1.053-.024c.357-.007.696-.01 1.019-.01-.076.338-.135.669-.18.991-.035.248-.072.495-.112.742h-.293a2.163 2.163 0 01-.04-.241 1.856 1.856 0 00-.142-.552.546.546 0 00-.135-.197c-.12-.097-.298-.154-.535-.17a12.27 12.27 0 00-.692-.022h-.304a4.44 4.44 0 00-.305.011l-.398.028c-.154.011-.352.028-.592.051a1.823 1.823 0 00-.046.264c-.028.307-.045.616-.049.924-.005.169-.007.324-.007.467v1.26c.083.024.208.038.371.046.166.008.335.011.507.011h.315a9.04 9.04 0 00.699-.041.726.726 0 00.439-.175.754.754 0 00.208-.344l.142-.478h.293c-.048.43-.07.862-.067 1.295-.003.433.019.865.066 1.295h-.292a11.695 11.695 0 01-.142-.485.708.708 0 00-.219-.359c-.09-.084-.232-.136-.428-.159a6.517 6.517 0 00-.699-.034h-.316c-.179 0-.349.006-.512.017a3.849 3.849 0 00-.366.04v1.948c0 .164.007.324.017.478.011.154.028.295.051.423a.798.798 0 00.09.281.373.373 0 00.158.119c.076.033.164.066.264.095.102.03.21.057.328.078l.332.068v.293a23.947 23.947 0 00-.378-.023l-.467-.022a17.807 17.807 0 00-.924-.023 22.69 22.69 0 00-1.543.068v-.294c.212-.052.392-.106.542-.158.149-.053.255-.12.315-.203a.819.819 0 00.09-.281c.024-.14.041-.281.051-.423.012-.154.017-.313.017-.478v-3.832h.002zm6.645 2.252c0-.143-.001-.298-.005-.468a9.148 9.148 0 00-.025-.496 8.09 8.09 0 00-.039-.438.872.872 0 00-.068-.288c-.038-.091-.142-.154-.309-.192-.17-.038-.359-.079-.57-.123v-.272c.203.015.436.028.699.034a27.22 27.22 0 001.565 0c.271-.007.508-.019.711-.034v.272c-.19.04-.38.081-.569.123-.169.038-.274.101-.309.192a.866.866 0 00-.068.288c-.016.132-.028.278-.041.438-.022.32-.031.642-.027.963v1.127c0 .142.001.298.005.466a11.278 11.278 0 00.064.936.84.84 0 00.068.287c.036.09.14.154.309.192l.569.124v.27a15.373 15.373 0 00-.711-.034 31.365 31.365 0 00-1.564 0 16.25 16.25 0 00-.699.034v-.269c.21-.046.4-.085.569-.124.168-.038.271-.102.309-.192a.912.912 0 00.068-.287c.016-.132.028-.278.038-.439.013-.165.021-.331.025-.497.004-.168.005-.325.005-.466v-1.127zm4.099 0v-.451a5.566 5.566 0 00-.061-.856 1.011 1.011 0 00-.074-.27.468.468 0 00-.142-.145 1.175 1.175 0 00-.225-.125 2.613 2.613 0 00-.511-.156v-.272c.09.015.227.028.415.034.189.008.38.011.575.011l.26-.005c.135-.005.266-.017.394-.041.27.315.531.61.783.884.251.274.512.553.782.839l1.15 1.205.513.534c.153.161.302.31.444.445h.046v-2.195c0-.227-.008-.439-.024-.638a1.422 1.422 0 00-.112-.489c-.038-.091-.141-.154-.31-.192-.19-.042-.379-.083-.569-.123v-.272c.15.015.325.028.525.034.447.016.894.016 1.34 0a8.23 8.23 0 00.5-.034v.272c-.21.051-.381.094-.514.128-.132.034-.214.094-.252.186-.067.155-.105.32-.113.489a9.044 9.044 0 00-.022.638v2.217c.003.422.008.845.016 1.267.004.199.009.359.017.479h-.27c-.245-.28-.491-.56-.737-.838a35.522 35.522 0 00-.716-.783l-1.339-1.406-.355-.379a16.59 16.59 0 01-.311-.338l-.293-.32a34.306 34.306 0 01-.316-.349h-.044v2.704c0 .227.007.439.023.636a1.4 1.4 0 00.113.491c.037.089.142.153.31.191l.569.124v.27a9.288 9.288 0 00-.552-.034 23.239 23.239 0 00-1.397 0 8.535 8.535 0 00-.529.034v-.269c.21-.046.399-.085.568-.124.168-.038.272-.102.31-.192.067-.156.105-.322.112-.491.015-.196.023-.41.023-.635v-1.69zm8.829.675c-.101 0-.203.002-.304.006a2.098 2.098 0 00-.237.028v.981c0 .225.004.43.012.614.007.183.021.362.044.534.128.03.295.048.5.055.208.009.413.012.614.012.175 0 .372-.009.598-.028.225-.019.39-.061.495-.129.106-.068.209-.172.311-.315.126-.186.237-.382.332-.585h.292c-.111.513-.19 1.031-.236 1.554a20.361 20.361 0 00-1.019-.038 27.483 27.483 0 00-.642-.007h-1.982a16.575 16.575 0 00-1.166.044v-.268c.21-.052.379-.096.506-.129.128-.034.214-.096.26-.186.06-.127.098-.291.112-.491.016-.197.024-.41.024-.634v-2.253c0-.225-.008-.437-.024-.637a1.378 1.378 0 00-.112-.489c-.038-.092-.123-.152-.253-.186l-.513-.129v-.271a14.554 14.554 0 00.766.041c.136.003.264.006.383.006h.676c.165 0 .365-.003.602-.006.236-.004.488-.01.754-.017a55.935 55.935 0 011.639-.024c-.107.438-.189.882-.247 1.329h-.271a5.765 5.765 0 00-.094-.388.82.82 0 00-.153-.298c-.076-.091-.21-.143-.406-.159a7.228 7.228 0 00-.551-.022h-.236c-.077 0-.156.001-.244.005-.085.005-.183.009-.293.017-.109.009-.242.015-.399.023-.038.106-.06.277-.067.513-.009.236-.012.468-.012.693v.755a1.9 1.9 0 00.243.027c.078.003.179.006.298.006h.315c.165 0 .332-.007.502-.023.167-.014.295-.068.377-.158.067-.075.119-.151.157-.227.039-.074.08-.172.125-.291h.271c-.053.446-.07.895-.051 1.344.004.132.017.298.04.502h-.27a3.103 3.103 0 00-.113-.31.784.784 0 00-.168-.243c-.076-.076-.2-.117-.373-.129a7.447 7.447 0 00-.496-.017l-.316-.002zm11.61-.102a4.366 4.366 0 00-.428-.023h-1.769c-.119 0-.251.009-.394.023l-.529 1.475-.164.463a.833.833 0 00-.051.27c0 .053.027.097.079.135a.667.667 0 00.204.095c.089.028.178.053.269.074l.281.068v.271a15.208 15.208 0 00-1.463-.068c-.35-.003-.701.02-1.048.068v-.271c.12-.014.24-.038.361-.068a.875.875 0 00.304-.135c.113-.076.222-.204.326-.387.106-.186.208-.401.305-.648l2.478-6.532h.292l2.635 6.61c.106.249.182.436.23.564.05.127.123.228.22.305.098.074.21.133.332.179.125.044.249.082.378.112v.271a3.256 3.256 0 00-.219-.024c-.102-.008-.214-.014-.338-.022a9.7 9.7 0 00-.66-.023c-.359 0-.691.008-.989.023-.302.014-.515.03-.643.045v-.271c.083-.014.17-.034.264-.057.094-.022.181-.051.26-.085a.905.905 0 00.196-.112.188.188 0 00.079-.152.815.815 0 00-.068-.303c-.045-.113-.092-.233-.145-.362l-.585-1.508zm-.866-.538c.149 0 .274-.004.371-.008a2.09 2.09 0 00.269-.027l-1.091-2.794h-.044l-1.025 2.804c.083.015.164.024.247.024l1.273.001zm8.593 1.958c.096.135.198.268.304.4.104.132.221.247.349.349.127.101.266.185.415.248.151.062.315.094.496.094v.271c-.113.014-.241.03-.382.044a4.022 4.022 0 01-.439.024 1.83 1.83 0 01-.473-.057 1.343 1.343 0 01-.417-.193 2.135 2.135 0 01-.412-.365 5.347 5.347 0 01-.446-.58l-.968-1.374c-.126 0-.247-.002-.359-.006a1.662 1.662 0 01-.272-.028v.869c0 .227.008.438.024.636a1.4 1.4 0 00.112.491c.038.09.142.153.311.191.167.038.359.078.568.124v.27a37.18 37.18 0 00-.749-.034 27.52 27.52 0 00-1.465 0 17.57 17.57 0 00-.648.034v-.269l.514-.129c.13-.033.215-.095.253-.186.067-.156.105-.322.112-.491.015-.197.024-.41.024-.635v-2.252c0-.227-.009-.439-.024-.637a1.423 1.423 0 00-.112-.49c-.038-.091-.123-.152-.253-.186a45.826 45.826 0 00-.514-.129v-.271c.408.03.818.045 1.227.045.227 0 .464-.013.716-.038.23-.026.461-.04.693-.042.135 0 .319.015.552.045.232.03.463.095.687.197.226.102.419.248.585.439.165.193.247.453.247.783 0 .36-.095.678-.287.952s-.49.475-.895.602l.926 1.284zm-2.603-1.633c.098.029.187.049.266.057.208.017.417.013.624-.011.142-.016.281-.06.417-.135a.976.976 0 00.349-.343c.096-.155.146-.371.146-.648 0-.434-.095-.737-.287-.906-.192-.17-.467-.254-.828-.254-.113 0-.221.017-.327.052a.493.493 0 00-.236.14.446.446 0 00-.075.176c-.02.089-.033.179-.04.269a4.115 4.115 0 00-.011.333v1.27h.002zm6.508-.923a9.155 9.155 0 00-.057-1.194 2.695 2.695 0 00-.359-.024h-.349c-.098 0-.224.01-.378.029a.903.903 0 00-.411.153.674.674 0 00-.214.281c-.069.159-.133.32-.192.483h-.293c.038-.226.065-.466.085-.725l.051-.739c.201.016.453.03.755.046.298.014.617.023.955.023h1.756c.617.001 1.233-.022 1.848-.069l-.061.389a9.49 9.49 0 00-.051.338c-.016.109-.03.224-.046.345-.014.119-.03.251-.044.393h-.293a2.637 2.637 0 00-.095-.449c-.049-.166-.11-.278-.187-.34a.665.665 0 00-.298-.123 3.125 3.125 0 00-.512-.035h-.294c-.134 0-.236.009-.302.024-.024.219-.041.415-.052.591a8.7 8.7 0 00-.018.604v2.251c0 .226.009.438.023.635.016.2.054.362.113.491.038.09.142.154.31.192.17.038.359.078.569.123v.271a18.324 18.324 0 00-.704-.034 31.365 31.365 0 00-1.564 0c-.268.008-.503.019-.704.034v-.27l.568-.123c.17-.038.272-.103.31-.193.067-.156.105-.322.112-.491a7.93 7.93 0 00.022-.635l.001-2.252zm3.964 3.84a13.406 13.406 0 00-.066-.94l-.069-.603h.293c.059.189.132.356.215.501.081.146.172.274.27.378.106.121.263.218.473.293.21.076.458.112.743.112.127 0 .257-.01.388-.032a1.09 1.09 0 00.361-.131.803.803 0 00.265-.247.685.685 0 00.102-.389c0-.165-.024-.306-.068-.422a.811.811 0 00-.203-.298 1.614 1.614 0 00-.338-.23 5.81 5.81 0 00-.473-.221l-.755-.325c-.406-.174-.694-.383-.867-.632a1.421 1.421 0 01-.26-.834 1.436 1.436 0 01.653-1.243c.189-.125.395-.216.621-.272.224-.057.438-.085.64-.085.338 0 .639.03.901.092l.789.18a6.45 6.45 0 00-.028 1.002c.004.105.009.221.018.349h-.293a4.124 4.124 0 00-.147-.474 1.124 1.124 0 00-.259-.383.99.99 0 00-.451-.243 2.142 2.142 0 00-.529-.073c-.136 0-.264.013-.389.039a.924.924 0 00-.327.136.765.765 0 00-.23.247.732.732 0 00-.091.378c0 .293.064.507.192.642.127.136.289.244.485.327l.765.315c.217.091.421.186.609.287.187.102.349.217.491.349.137.132.247.28.325.446.079.165.119.356.119.574 0 .316-.074.578-.22.788-.146.21-.322.378-.531.5a2.056 2.056 0 01-.657.26 3.12 3.12 0 01-.609.074c-.344 0-.688-.027-1.029-.079l-.423-.061a18 18 0 00-.406-.052"/></svg>