<svg xmlns="http://www.w3.org/2000/svg" viewBox="0 0 296 45"><g fill="#262626"><path d="M144.956 3.75v-.462c0-.164-.006-.325-.017-.479a4.299 4.299 0 00-.051-.422.773.773 0 00-.091-.281c-.059-.082-.165-.15-.315-.204a6.704 6.704 0 00-.541-.158v-.291c.204.014.447.03.733.044.285.016.555.024.81.024h.507c.227 0 .487-.004.783-.011.296-.009.611-.015.939-.023l1.015-.024c.345-.007.679-.01 1.002-.01-.076.338-.136.669-.179.991-.035.248-.073.495-.114.742h-.293a2.471 2.471 0 01-.04-.241 2.058 2.058 0 00-.142-.552.541.541 0 00-.133-.197c-.122-.097-.298-.154-.536-.169a10.951 10.951 0 00-.692-.023h-.288c-.088 0-.176.004-.264.011l-.36.028c-.144.011-.335.028-.576.051a1.82 1.82 0 00-.045.264c-.028.307-.045.616-.049.924-.005.17-.007.325-.007.467v3.84c0 .166.007.325.017.48.011.153.028.295.051.421a.808.808 0 00.09.283.363.363 0 00.158.118c.076.034.164.066.264.095.102.03.211.057.328.078l.332.068v.293a23.947 23.947 0 00-.378-.023l-.467-.023c-.166-.008-.329-.012-.489-.017-.415-.01-.83-.004-1.245.017-.286.015-.53.03-.733.046v-.291a5.96 5.96 0 00.541-.158c.15-.052.257-.12.315-.203a.826.826 0 00.091-.282c.023-.126.038-.268.051-.421.011-.155.017-.313.017-.48V3.75h.001zm5.406 2.646c0-.42.087-.8.264-1.137.176-.338.411-.625.703-.862a3.3 3.3 0 01.998-.547 3.541 3.541 0 011.154-.192c.502 0 .938.084 1.307.249.366.164.666.384.901.658.231.274.406.585.517.935.113.349.17.708.17 1.076 0 .421-.089.808-.264 1.166-.172.35-.411.661-.704.918a3.311 3.311 0 01-2.152.81c-.51 0-.948-.091-1.311-.276a2.647 2.647 0 01-.896-.714 2.985 2.985 0 01-.518-.985 3.723 3.723 0 01-.169-1.099m3.006-2.252c-.675 0-1.169.189-1.48.566-.312.378-.467.902-.467 1.575 0 .337.031.667.094.991.065.326.174.614.328.864.154.25.354.453.602.612.248.156.557.236.923.236.338 0 .629-.057.873-.168.244-.113.447-.272.608-.478.162-.206.28-.448.355-.728.076-.28.113-.589.113-.926a4.45 4.45 0 00-.102-.963 2.475 2.475 0 00-.328-.814 1.637 1.637 0 00-.597-.56c-.246-.138-.554-.207-.922-.207m9.201 4.989c-.187.044-.361.089-.518.129a7.978 7.978 0 01-.906.181 4.166 4.166 0 01-1.774-.17 2.89 2.89 0 01-1.019-.567 2.643 2.643 0 01-.659-.897 2.849 2.849 0 01-.236-1.187c0-.466.077-.883.236-1.25.149-.356.376-.674.665-.93a3.025 3.025 0 011.019-.58 4.027 4.027 0 011.312-.203c.194 0 .376.014.54.041.165.025.326.056.479.089l.463.102c.153.033.321.061.501.084a7.9 7.9 0 00-.109.592c-.025.191-.049.429-.072.715h-.27a4.111 4.111 0 00-.221-.557.928.928 0 00-.253-.345c-.24-.18-.615-.27-1.126-.27-.33 0-.627.059-.89.175a1.88 1.88 0 00-.665.485 2.083 2.083 0 00-.41.743c-.094.29-.142.602-.142.939 0 .353.046.685.136.997.09.312.227.584.41.817.185.231.418.415.699.551.282.136.614.202.998.202.232 0 .448-.025.646-.078a1.49 1.49 0 00.525-.247c.105-.082.212-.217.321-.406a4.59 4.59 0 00.277-.552h.271c-.033.192-.07.384-.109.576-.019.104-.037.223-.057.354l-.062.467m2.85-4.776c0 .085.047.213.145.389l.461.827.958 1.701h.045l.969-2.048c.105-.233.183-.412.237-.536a.868.868 0 00.078-.332c0-.043-.024-.087-.074-.128a.55.55 0 00-.191-.102 3.435 3.435 0 00-.548-.129v-.27c.401.029.804.044 1.206.044.316.001.631-.014.946-.044V4a2.14 2.14 0 00-.519.201c-.104.06-.209.198-.314.413-.107.213-.244.504-.418.872l-1.237 2.556a7.638 7.638 0 01-.418.777c-.12.188-.236.331-.349.428a.781.781 0 01-.338.186 1.692 1.692 0 01-.382.04c-.261 0-.518-.047-.765-.145 0-.308-.008-.583-.025-.823a13.377 13.377 0 00-.044-.564h.294c.06.142.117.274.174.395.057.12.115.221.175.305a.481.481 0 00.198.184.503.503 0 00.207.041.525.525 0 00.339-.118c.097-.079.194-.227.293-.446l-1.61-2.703a84.187 84.187 0 00-.552-.906c-.164-.266-.312-.43-.439-.491a6.788 6.788 0 00-.309-.119 2.442 2.442 0 00-.277-.082v-.274c.172.014.379.026.619.033.458.014.916.014 1.373 0 .241-.007.459-.019.654-.033v.271a8.43 8.43 0 01-.17.05 1.208 1.208 0 00-.186.066.552.552 0 00-.146.103.195.195 0 00-.06.14m6.395 5.001c-.149 0-.323.01-.517.034a1.036 1.036 0 00-.507.192.93.93 0 00-.196.219 2.96 2.96 0 00-.204.337c-.118.231-.229.466-.332.704h-.293c.015-.142.028-.304.04-.483.01-.179.02-.365.028-.553.007-.188.015-.364.023-.534.007-.17.01-.311.01-.422.113.023.23.038.355.044.124.008.243.012.356.012h.145c.123-.148.231-.309.321-.48.109-.198.204-.444.287-.736.106-.384.19-.748.255-1.093.063-.345.121-.72.174-1.126l.039-.373c.011-.104.017-.217.017-.337a.87.87 0 00-.111-.439c-.054-.091-.165-.16-.332-.209a5.378 5.378 0 00-.502-.118v-.292l.642.045c.227.014.466.023.721.023h2.342c.256 0 .514-.008.777-.023.263-.016.497-.03.699-.045v.293c-.21.053-.38.094-.512.129-.132.034-.217.094-.255.186a1.399 1.399 0 00-.111.489 7.975 7.975 0 00-.023.637v2.253c0 .225.007.44.023.647.015.207.038.35.068.433.014.045.075.079.179.102.106.022.24.034.405.034.09 0 .189-.008.293-.023.105-.015.203-.03.295-.045a6.473 6.473 0 00-.075.388c-.026.16-.053.336-.078.524l-.079.57c-.026.19-.049.364-.073.522h-.293a10.35 10.35 0 00-.225-.755c-.091-.261-.193-.446-.305-.551-.076-.067-.227-.114-.456-.14a7.589 7.589 0 00-.839-.04h-2.176zm2.388-3.919c0-.217-.005-.435-.012-.652a2.964 2.964 0 00-.057-.531 6.126 6.126 0 00-.664-.034h-.27c-.143 0-.285.006-.428.017-.143.012-.244.059-.305.142a.79.79 0 00-.128.315 8.25 8.25 0 00-.085.519l-.04.315c-.011.09-.025.179-.038.269a9.27 9.27 0 00-.047.283l-.055.348c-.048.288-.103.575-.164.861-.057.26-.126.506-.208.738a5.032 5.032 0 01-.383.878h2.837c.027-.177.041-.355.041-.534.003-.229.005-.456.005-.681l.001-2.253zm6.138 2.241a3.952 3.952 0 00-.361-.023h-1.119c-.125 0-.259.008-.401.023l-.225.597a4.51 4.51 0 00-.091.254.846.846 0 00-.045.264c0 .053.025.099.073.134a.687.687 0 00.181.097c.071.025.154.048.248.068.094.018.185.038.277.061v.247a18.57 18.57 0 00-.525-.044 10.725 10.725 0 00-.761-.024 5.384 5.384 0 00-.568.024c-.13.013-.26.028-.389.044v-.247c.107-.015.212-.038.315-.068a1.44 1.44 0 00.283-.112c.119-.059.213-.175.285-.345.073-.168.138-.324.198-.466l1.734-4.505h.271l1.857 4.562.17.377c.052.117.109.212.17.288.071.074.159.13.257.162.114.042.234.077.362.108v.247a1.821 1.821 0 00-.209-.017l-.303-.01-.333-.012a8.83 8.83 0 00-.281-.005c-.361 0-.657.004-.89.01a6.518 6.518 0 00-.541.034v-.248c.17-.03.338-.074.502-.129a.634.634 0 00.179-.097.161.161 0 00.073-.133.727.727 0 00-.06-.272 9.706 9.706 0 01-.096-.236l-.237-.608zm-.732-.474h.315c.059 0 .132-.007.213-.022l-.743-1.88h-.045l-.698 1.88c.082.015.169.022.259.022h.699zm5.201.485c0 .227.008.438.024.636a1.4 1.4 0 00.112.491c.038.089.145.151.327.186.179.032.401.076.665.128v.27a27.334 27.334 0 00-2.326-.034 16.79 16.79 0 00-.648.034v-.27l.514-.128c.13-.034.215-.097.253-.187.066-.155.104-.321.111-.49.016-.212.024-.424.024-.636V5.44c0-.227-.008-.439-.024-.638a1.416 1.416 0 00-.111-.488c-.038-.092-.123-.153-.253-.187a49.467 49.467 0 00-.514-.128v-.272c.405.03.811.045 1.218.045.235-.005.47-.018.704-.04l.355-.034c.111-.011.205-.017.281-.017.734 0 1.293.159 1.671.479.38.319.569.75.569 1.289 0 .247-.05.479-.151.692a1.7 1.7 0 01-.423.557 1.89 1.89 0 01-.653.366 2.576 2.576 0 01-.846.131 1.78 1.78 0 01-.364-.04 1.198 1.198 0 01-.288-.081v-.262c.059.015.132.026.213.035.083.008.177.01.282.01.255 0 .463-.049.619-.146.159-.099.276-.215.355-.35.078-.136.132-.281.158-.436.024-.132.037-.266.04-.4 0-.303-.042-.546-.124-.731a1.135 1.135 0 00-.304-.424.915.915 0 00-.383-.193 1.72 1.72 0 00-.371-.046c-.107 0-.214.004-.321.012-.121.01-.24.033-.356.068a7.442 7.442 0 00-.027.558c-.004.221-.007.444-.007.67l-.001 2.252zm8.897 1.442c-.187.044-.361.089-.518.129a7.978 7.978 0 01-.906.181 3.66 3.66 0 01-.456.028c-.481 0-.92-.066-1.317-.198a2.89 2.89 0 01-1.019-.567 2.646 2.646 0 01-.66-.897 2.849 2.849 0 01-.236-1.187c0-.466.078-.883.236-1.25.159-.368.379-.679.665-.93a3.025 3.025 0 011.019-.58 4.027 4.027 0 011.312-.203c.194 0 .376.014.54.041.166.025.326.056.48.089l.462.102c.154.033.321.061.501.084a7.895 7.895 0 00-.108.592 13.11 13.11 0 00-.073.715h-.27a4.106 4.106 0 00-.22-.557.92.92 0 00-.254-.345c-.24-.18-.615-.27-1.126-.27-.33 0-.627.059-.89.175a1.897 1.897 0 00-.664.485c-.186.217-.326.47-.411.743-.094.29-.142.602-.142.939 0 .353.047.685.136.997.091.312.227.584.411.817.184.231.417.415.699.551.281.136.614.202.997.202.232 0 .448-.025.647-.078.189-.047.367-.131.524-.247.106-.082.212-.217.321-.406a4.59 4.59 0 00.277-.552h.271c-.033.192-.07.384-.109.576-.019.104-.037.223-.057.354l-.062.467m3.109-3.694c0-.226-.004-.429-.01-.609a8.754 8.754 0 00-.047-.585 2.536 2.536 0 00-.359-.023h-.349a3.21 3.21 0 00-.378.028.903.903 0 00-.411.153.672.672 0 00-.213.281 7.71 7.71 0 00-.193.483h-.293c.038-.226.065-.466.085-.727l.051-.736c.201.015.453.029.753.045.3.014.619.023.957.023h1.757c.616.001 1.233-.022 1.847-.069-.038.242-.076.484-.112.727-.016.109-.03.224-.046.345-.014.119-.03.251-.044.393h-.293a2.637 2.637 0 00-.095-.449c-.049-.166-.11-.278-.187-.339a.68.68 0 00-.298-.125 3.124 3.124 0 00-.512-.033h-.293c-.134 0-.236.008-.304.023-.023.219-.04.415-.051.591a8.7 8.7 0 00-.018.604v2.251c0 .226.009.438.023.636.016.198.054.362.114.49.038.091.14.154.309.192.17.038.359.078.569.123v.271a18.324 18.324 0 00-.704-.034 31.365 31.365 0 00-1.564 0c-.267.008-.503.02-.704.034v-.27c.21-.045.399-.085.568-.123.17-.038.272-.102.31-.193.067-.156.105-.322.112-.491a7.91 7.91 0 00.023-.635V5.439zm4.977-1.666c.192 0 .385-.011.576-.034.187-.023.423-.034.708-.034.203 0 .413.018.632.057.217.038.413.102.592.196.176.093.32.225.431.395.114.167.169.384.169.647a.943.943 0 01-.136.518 1.163 1.163 0 01-.332.349 1.752 1.752 0 01-.415.213c-.131.049-.265.09-.4.124v.046c.593.082 1.05.264 1.369.546.319.281.479.636.479 1.065 0 .211-.04.41-.119.597a1.276 1.276 0 01-.381.497 2.057 2.057 0 01-.682.343 3.457 3.457 0 01-1.003.129c-.113 0-.224-.004-.332-.011a15.826 15.826 0 00-.336-.022l-.374-.024a8.222 8.222 0 00-.444-.01c-.255 0-.479.004-.67.009-.193.009-.389.021-.592.034v-.27c.421-.105.676-.247.766-.427.059-.128.098-.274.112-.434.015-.161.024-.355.024-.581V5.439c0-.225-.009-.438-.024-.637a1.417 1.417 0 00-.112-.488c-.046-.092-.132-.153-.26-.187a31.335 31.335 0 00-.507-.128v-.272a13.965 13.965 0 001.261.046zm.585 2.297a.967.967 0 00.147.009h.158c.135 0 .274-.013.415-.043.143-.03.273-.085.391-.165a.939.939 0 00.287-.314.983.983 0 00.111-.489c0-.211-.031-.378-.094-.502a.72.72 0 00-.244-.281.801.801 0 00-.315-.123 1.886 1.886 0 00-.551-.018 2.096 2.096 0 00-.236.034 4.427 4.427 0 00-.052.551c-.009.247-.017.485-.017.71v.631zm0 1.621c0 .226.007.438.017.636.011.199.038.34.075.423.052.105.163.173.338.203.171.03.333.044.483.044.375 0 .655-.108.84-.321.183-.213.275-.491.275-.827 0-.406-.14-.731-.422-.976-.281-.243-.667-.364-1.154-.364h-.236c-.076 0-.147.004-.215.01l-.001 1.172zm6.442-1.014c-.127 0-.228.003-.303.006a2.098 2.098 0 00-.237.028v.981c0 .225.004.43.012.614.008.183.021.362.044.534.128.03.295.05.5.055.208.009.413.012.614.012.175 0 .372-.009.598-.028.225-.019.39-.061.495-.129.123-.084.228-.191.311-.315.126-.186.237-.382.332-.585h.292c-.111.513-.19 1.031-.236 1.554a20.361 20.361 0 00-1.019-.038 45.805 45.805 0 00-.642-.007h-1.982c-.27 0-.54.008-.81.023-.14.008-.259.014-.356.022v-.27c.211-.053.379-.097.506-.13.128-.034.214-.096.26-.186.06-.127.098-.29.112-.49.016-.198.024-.411.024-.635V5.438c0-.225-.008-.437-.024-.637a1.378 1.378 0 00-.112-.489c-.038-.091-.123-.152-.253-.186l-.513-.129v-.271a14.906 14.906 0 00.766.041c.136.003.264.006.383.006h.676c.165 0 .365-.003.602-.006.236-.004.488-.01.755-.017a55.935 55.935 0 011.639-.024c-.107.439-.19.883-.248 1.33h-.271a5.793 5.793 0 00-.094-.389.8.8 0 00-.154-.298c-.076-.09-.209-.143-.405-.159a7.228 7.228 0 00-.551-.022h-.236c-.077 0-.156.001-.244.005-.085.005-.183.009-.292.017-.109.009-.243.015-.4.023-.038.106-.059.277-.067.513-.009.236-.012.468-.012.693v.755a1.9 1.9 0 00.243.027c.079.004.179.007.298.007h.315c.165 0 .332-.008.502-.024.167-.014.295-.068.377-.158.067-.075.119-.151.157-.227.039-.074.08-.171.125-.291h.271c-.053.446-.07.895-.051 1.344.004.132.017.298.04.502h-.27a3.103 3.103 0 00-.113-.31.775.775 0 00-.168-.241c-.076-.076-.2-.12-.373-.131a7.447 7.447 0 00-.496-.017l-.317.002zm4.55-1.238c0-.226-.007-.442-.023-.647a1.405 1.405 0 00-.112-.503c-.038-.089-.123-.146-.253-.174a10.587 10.587 0 01-.513-.118v-.27c.203.016.417.028.648.034.484.016.969.016 1.453 0 .229-.007.445-.018.648-.034v.271c-.211.053-.381.092-.513.118-.132.027-.217.085-.254.174a1.41 1.41 0 00-.112.503 9.3 9.3 0 00-.023.647v.743c.113.016.269.026.467.034.199.008.418.012.66.012h.855c.241 0 .46-.004.66-.012a5.46 5.46 0 00.466-.034v-.745c0-.226-.007-.442-.023-.647a1.453 1.453 0 00-.112-.503c-.038-.089-.123-.146-.254-.174a11.475 11.475 0 01-.512-.118v-.27c.203.016.418.028.648.034.484.016.969.016 1.453 0 .228-.007.445-.018.647-.034v.271c-.211.053-.38.092-.513.118-.132.027-.215.085-.253.174-.067.16-.106.33-.113.503a9.3 9.3 0 00-.022.647V7.69c0 .226.008.438.023.636s.053.362.113.49c.038.091.121.156.252.196.132.042.302.081.513.119v.271a17.026 17.026 0 00-1.374-.044c-.458-.003-.916.012-1.373.044v-.27c.209-.038.38-.076.512-.119.132-.041.217-.106.255-.196a1.46 1.46 0 00.111-.491 7.91 7.91 0 00.023-.635v-.969a5.584 5.584 0 00-.466-.034 16.16 16.16 0 00-.661-.011h-.854c-.242 0-.461.004-.661.011a5.584 5.584 0 00-.466.034v.968c0 .226.008.438.023.636.014.198.053.362.112.49.038.091.123.156.255.196.13.042.3.081.512.119v.271a17.473 17.473 0 00-1.373-.044c-.459-.003-.917.012-1.374.044v-.27c.211-.038.38-.076.513-.119.131-.041.215-.106.253-.196a1.39 1.39 0 00.112-.491c.016-.197.024-.41.024-.635l-.004-2.252zm7.659 0c0-.226-.008-.442-.024-.647a1.405 1.405 0 00-.112-.503c-.038-.089-.123-.146-.253-.174a10.587 10.587 0 01-.513-.118v-.27c.203.016.417.028.647.034.484.016.969.016 1.454 0 .229-.007.444-.018.648-.034v.271c-.211.053-.381.092-.513.118-.132.027-.217.085-.255.174-.068.159-.105.33-.111.503a8.722 8.722 0 00-.024.647v.743c.113.016.269.026.468.034.199.008.418.012.659.012h.856c.241 0 .46-.004.659-.012.198-.008.354-.019.467-.034v-.745c0-.226-.007-.442-.023-.647a1.453 1.453 0 00-.112-.503c-.038-.089-.123-.146-.254-.174a11.204 11.204 0 01-.513-.118v-.27c.204.016.418.028.648.034.484.016.969.016 1.453 0 .228-.007.445-.018.646-.034v.271c-.17.043-.34.083-.512.118-.132.027-.215.085-.253.174-.067.16-.106.33-.113.503a9.3 9.3 0 00-.022.647V7.69c0 .226.008.438.022.636.015.198.054.362.113.49.038.091.122.156.253.196.132.042.302.081.512.119v.271a17.002 17.002 0 00-1.373-.044c-.458-.003-.916.012-1.373.044v-.27c.21-.038.381-.076.513-.119.132-.041.217-.106.255-.196.059-.128.094-.291.111-.491a7.91 7.91 0 00.023-.635v-.969a5.608 5.608 0 00-.467-.034c-.22-.008-.439-.012-.659-.011h-.856c-.241 0-.46.004-.659.011a5.632 5.632 0 00-.468.034v.968c0 .226.008.438.024.636.014.198.052.362.112.49.038.091.123.156.254.196.131.042.301.081.513.119v.271a17.473 17.473 0 00-1.373-.044c-.459-.003-.917.012-1.374.044v-.27c.211-.038.38-.076.513-.119.13-.041.215-.106.253-.196a1.39 1.39 0 00.112-.491c.016-.197.024-.41.024-.635V5.439h-.003zm8.602.709a2.22 2.22 0 01.281-.033c.417-.03.836-.003 1.245.08.297.059.558.157.783.291.226.136.406.312.547.529.138.22.208.49.208.812a1.416 1.416 0 01-.562 1.154 2.122 2.122 0 01-.648.328 2.847 2.847 0 01-.84.118 7.76 7.76 0 01-.708-.034 7.753 7.753 0 00-.777-.033 16.74 16.74 0 00-1.376.043v-.27l.514-.128c.13-.034.215-.097.253-.187.066-.155.104-.321.111-.49.016-.212.024-.424.024-.636V5.44c0-.227-.008-.439-.024-.638a1.416 1.416 0 00-.111-.488c-.038-.092-.123-.153-.253-.187a49.467 49.467 0 00-.514-.128v-.272c.204.015.419.027.648.034.503.014 1.006.014 1.509 0 .267-.007.501-.019.704-.034v.271c-.21.044-.401.085-.568.123-.17.038-.274.101-.312.193-.066.155-.104.32-.111.488a8.481 8.481 0 00-.024.638l.001.708zm0 1.487c0 .241.004.459.011.653.009.195.039.342.091.44.052.097.156.162.311.196.153.034.306.051.455.051.128 0 .26-.017.395-.051a.89.89 0 00.366-.186c.115-.097.207-.218.27-.354.072-.147.108-.333.108-.557 0-.406-.126-.719-.378-.941-.251-.221-.592-.332-1.019-.332a3.649 3.649 0 00-.609.045l-.001 1.036zm3.897-2.195c0-.227-.008-.443-.022-.648a1.49 1.49 0 00-.112-.501c-.038-.091-.123-.148-.254-.176a11.186 11.186 0 01-.513-.116v-.272c.202.015.419.027.648.034.7.022 1.4.011 2.099-.034v.271c-.17.043-.341.082-.513.116-.132.028-.215.085-.253.176a1.421 1.421 0 00-.113.501 9.35 9.35 0 00-.022.648V7.69c0 .227.008.438.023.636.015.199.053.362.113.491.038.089.121.156.252.196.132.042.302.08.513.118v.27a15.527 15.527 0 00-.648-.034 25.104 25.104 0 00-1.452 0 16.58 16.58 0 00-.648.034v-.27c.21-.038.381-.076.513-.118.132-.041.216-.108.255-.197.059-.127.095-.291.111-.49.015-.212.022-.424.022-.636.001.001.001-2.25.001-2.25zm3.604-.001c0-.226-.008-.442-.024-.647a1.405 1.405 0 00-.112-.503c-.038-.089-.123-.146-.253-.174a10.587 10.587 0 01-.513-.118v-.27c.203.016.418.028.648.034.484.016.969.016 1.453 0 .229-.007.445-.018.648-.034v.271a10.86 10.86 0 01-.514.118c-.132.027-.216.085-.254.174-.068.159-.105.33-.111.503a8.722 8.722 0 00-.024.647v2.342l3.222-3.186a.526.526 0 00-.123-.328c-.047-.059-.135-.107-.266-.142l-.513-.128v-.271c.203.016.419.028.648.034.484.016.969.016 1.453 0 .229-.007.445-.018.648-.034v.271c-.17.043-.341.083-.514.118-.13.027-.216.085-.254.174a1.43 1.43 0 00-.111.503 9.3 9.3 0 00-.022.647v2.252c0 .226.007.438.022.636.013.198.052.362.111.49.038.091.123.156.255.196.13.042.302.081.513.119v.27a17.498 17.498 0 00-1.374-.044c-.459-.003-.917.012-1.374.044v-.27c.211-.038.381-.076.513-.119.131-.041.215-.106.253-.196a1.39 1.39 0 00.112-.491c.016-.197.024-.41.024-.635V5.237l-3.222 3.187a.748.748 0 00.113.415c.044.084.136.143.269.18.136.038.308.076.519.113v.27a17.473 17.473 0 00-1.373-.044c-.459-.003-.917.012-1.374.044v-.27c.211-.038.381-.076.513-.119.131-.041.216-.106.253-.196a1.39 1.39 0 00.112-.491c.016-.197.024-.41.024-.635l-.001-2.252zm4.582-3.738a4.713 4.713 0 01-.381.405 3.324 3.324 0 01-.508.393 2.733 2.733 0 01-.625.298c-.408.14-.849.158-1.267.051a2.086 2.086 0 01-.484-.179 1.357 1.357 0 01-.349-.252.423.423 0 01-.135-.288.407.407 0 01.051-.181.93.93 0 01.5-.45c.113.173.295.332.548.48.251.146.56.218.928.218.271 0 .541-.066.812-.201.258-.127.494-.295.699-.497l.211.203zm6.78 4.414c.015-.233.027-.434.035-.602.007-.17.009-.317.009-.444 0-.123-.009-.253-.026-.396a.855.855 0 00-.108-.337c-.059-.082-.17-.149-.332-.197a7.086 7.086 0 00-.557-.14v-.272c.202.024.404.037.601.041.199.003.396.006.592.006.159 0 .315-.006.474-.017l.371-.029c.076.195.141.363.197.502.055.139.109.269.157.394.109.273.227.541.355.805l.8 1.745c.074.158.137.293.187.405.047.113.094.211.14.293h.044c.083-.158.179-.362.293-.618l.699-1.521c.151-.33.292-.649.423-.957.131-.308.261-.653.389-1.036.119.016.264.025.439.028.172.003.318.006.439.006.194 0 .388-.004.581-.011.191-.007.361-.019.512-.035V4c-.186.038-.37.085-.552.14-.159.048-.266.115-.326.197a.522.522 0 00-.057.162c-.03.139-.045.281-.045.423v.147c.007.312.019.623.034.935l.078 1.463c.015.278.038.541.068.788.03.248.076.436.135.564.038.09.123.153.252.187l.514.128v.27a23.42 23.42 0 00-.648-.033 25.545 25.545 0 00-2.214.033v-.27c.21-.045.397-.085.564-.118.164-.034.27-.099.315-.197a.789.789 0 00.073-.26c.011-.097.017-.197.017-.304 0-.081-.003-.191-.006-.327l-.016-.462-.057-1.463a28.02 28.02 0 00-.028-.501 28.96 28.96 0 01-.028-.514h-.044c-.128.331-.267.658-.417.981l-.89 1.926a43.08 43.08 0 00-.432 1.008 33.35 33.35 0 01-.21.5h-.271a57.933 57.933 0 00-.292-.68c-.113-.26-.217-.491-.315-.694l-.98-2.129a8.133 8.133 0 01-.129-.287 2.438 2.438 0 01-.085-.22c-.021-.064-.044-.128-.067-.192l-.08-.214h-.044c-.015.166-.03.345-.045.542-.015.195-.026.39-.034.585l-.044 1.238c-.014.274-.022.547-.023.821 0 .123.003.238.007.349a.78.78 0 00.06.294c.038.09.14.154.305.192.164.038.352.078.563.124v.269a7.265 7.265 0 00-.609-.038 36.689 36.689 0 00-1.327 0 6.624 6.624 0 00-.563.038v-.267c.21-.052.396-.096.563-.128.164-.034.27-.097.315-.187.06-.127.11-.327.151-.598.042-.27.069-.559.085-.867l.065-1.239zm9.258-1.758c0 .085.047.213.145.389.098.177.251.452.462.827l.957 1.701h.045l.969-2.048c.106-.233.183-.412.237-.536a.868.868 0 00.078-.332c0-.043-.024-.087-.074-.128a.55.55 0 00-.191-.102 3.449 3.449 0 00-.547-.129v-.27c.402.03.804.044 1.207.044.315.001.631-.014.945-.044V4a2.14 2.14 0 00-.519.201c-.104.06-.209.198-.314.413-.142.29-.281.58-.417.872l-1.238 2.556a7.638 7.638 0 01-.418.777 1.891 1.891 0 01-.349.428.784.784 0 01-.337.186 1.7 1.7 0 01-.383.04c-.262 0-.517-.047-.765-.145 0-.308-.008-.583-.024-.823a13.377 13.377 0 00-.044-.564h.293c.06.142.117.274.174.395.057.12.115.221.175.305a.481.481 0 00.198.184.508.508 0 00.208.041.525.525 0 00.338-.118c.098-.079.194-.227.293-.446l-1.61-2.703c-.203-.339-.387-.64-.552-.906-.164-.266-.311-.43-.439-.491a6.788 6.788 0 00-.309-.119 2.442 2.442 0 00-.277-.082v-.274c.172.014.379.026.619.033.458.014.916.014 1.373 0 .241-.007.459-.019.654-.033v.271a4.756 4.756 0 01-.17.05 1.208 1.208 0 00-.186.066.531.531 0 00-.145.103.197.197 0 00-.062.14m6.665 5.113c-.187 0-.362-.012-.522-.034-.306-.043-.61-.095-.913-.159a4.682 4.682 0 00-.456-.067c.03-.225.054-.415.073-.573.029-.24.048-.48.057-.721.004-.091.009-.187.016-.294h.294c.014.136.043.29.085.463.041.173.103.326.185.462.068.113.21.219.428.321.219.101.469.151.755.151.466 0 .812-.091 1.035-.274.226-.185.339-.495.339-.931 0-.406-.141-.721-.422-.951-.282-.23-.649-.345-1.099-.345-.091 0-.206.003-.343.007a4.474 4.474 0 00-.401.027c.015-.06.024-.137.028-.231a6.19 6.19 0 01.017-.264c.059.008.148.011.264.011h.276c.294 0 .529-.038.704-.113.153-.059.292-.151.406-.269a.791.791 0 00.186-.345c.03-.123.044-.234.044-.332a1.086 1.086 0 00-.09-.474.688.688 0 00-.236-.274.826.826 0 00-.332-.124 1.946 1.946 0 00-.862.044c-.179.049-.311.114-.395.196a1.318 1.318 0 00-.259.383 7.61 7.61 0 00-.191.463h-.294c.016-.241.028-.459.038-.655.013-.194.019-.418.019-.674.118-.007.234-.024.349-.051l.365-.085c.312-.07.632-.104.952-.102.256 0 .501.025.737.076.238.047.446.127.626.236s.322.249.428.421c.106.173.158.379.158.619a.913.913 0 01-.145.53 1.45 1.45 0 01-.355.361 1.597 1.597 0 01-.439.219c-.156.05-.285.085-.39.109v.044c.143.016.311.045.507.09.195.045.383.126.563.242.182.117.332.278.457.485.124.206.186.475.186.804 0 .294-.068.541-.203.745a1.51 1.51 0 01-.539.49 2.59 2.59 0 01-.779.264c-.301.054-.606.08-.912.079m5.789-2.793a7.53 7.53 0 00-.304.006 2.08 2.08 0 00-.236.028v.981c0 .225.003.429.011.614.008.183.022.362.045.534.127.03.295.05.5.055.208.009.413.012.614.012.175 0 .372-.009.598-.028.225-.019.391-.061.495-.129a1.15 1.15 0 00.311-.315c.126-.186.237-.382.331-.585h.293c-.111.513-.19 1.031-.237 1.554a20.361 20.361 0 00-1.019-.038 45.805 45.805 0 00-.642-.007h-1.981c-.27 0-.54.008-.81.023-.14.008-.259.014-.356.022v-.27c.211-.053.379-.097.507-.13.127-.034.214-.096.26-.186.06-.127.097-.29.111-.49.016-.198.024-.411.024-.635V5.438c0-.225-.008-.437-.024-.637a1.399 1.399 0 00-.111-.489c-.038-.091-.123-.152-.253-.186l-.514-.129v-.271a14.554 14.554 0 00.767.041c.135.003.263.006.382.006h.676c.166 0 .366-.003.602-.006.237-.004.488-.01.755-.017a55.935 55.935 0 011.639-.024c-.106.439-.189.883-.247 1.33h-.271a5.793 5.793 0 00-.094-.389.8.8 0 00-.154-.298c-.076-.09-.21-.143-.406-.159a7.222 7.222 0 00-.55-.022h-.237c-.076 0-.156.001-.244.005-.085.005-.183.009-.292.017-.133.009-.266.017-.399.023-.039.106-.06.277-.068.513-.008.236-.012.468-.012.693v.755c.084.014.165.024.243.027.079.004.179.007.298.007h.315c.166 0 .332-.008.501-.024.169-.014.295-.068.378-.158.068-.075.12-.151.158-.227.047-.095.088-.192.124-.291h.271a7.684 7.684 0 00-.057.922c0 .151.002.293.006.422.004.132.017.298.04.502h-.27a3.484 3.484 0 00-.113-.31.775.775 0 00-.168-.241c-.076-.076-.199-.12-.374-.131a7.44 7.44 0 00-.495-.017l-.317.002zm4.55-1.238c0-.226-.008-.442-.024-.647a1.425 1.425 0 00-.111-.503c-.038-.089-.123-.146-.253-.174a11.56 11.56 0 01-.514-.118v-.27c.204.016.418.028.648.034.484.016.969.016 1.454 0 .228-.007.444-.018.648-.034v.271c-.211.053-.382.092-.513.118-.132.027-.217.085-.255.174-.068.159-.105.33-.111.503a8.722 8.722 0 00-.024.647v2.342l3.222-3.186a.526.526 0 00-.123-.328c-.047-.059-.135-.107-.266-.142l-.513-.128v-.271c.203.016.42.028.648.034.484.016.969.016 1.453 0 .229-.007.445-.018.649-.034v.271c-.211.053-.382.092-.513.118-.131.027-.217.085-.255.174a1.43 1.43 0 00-.111.503 9.3 9.3 0 00-.022.647v2.252c0 .226.007.438.022.636.014.198.053.362.111.49.038.091.124.156.255.196.13.042.302.081.513.119v.27a17.498 17.498 0 00-1.374-.044c-.458-.003-.917.012-1.374.044v-.27c.211-.038.381-.076.513-.119.131-.041.216-.106.253-.196a1.41 1.41 0 00.113-.491c.015-.197.023-.41.023-.635V5.237L275.7 8.424c0 .052.007.112.017.179a.774.774 0 00.097.236c.043.084.135.143.269.18.135.038.308.076.519.113v.27a17.473 17.473 0 00-1.373-.044c-.459-.003-.917.012-1.374.044v-.27c.21-.038.38-.076.513-.119.13-.041.215-.106.253-.196a1.41 1.41 0 00.111-.491c.016-.197.024-.41.024-.635l-.001-2.252zm4.583-3.738a4.715 4.715 0 01-.382.405 3.365 3.365 0 01-.507.393 2.788 2.788 0 01-.626.298c-.408.14-.849.158-1.267.051-.168-.039-.33-.1-.483-.179a1.357 1.357 0 01-.349-.252.42.42 0 01-.136-.288.407.407 0 01.051-.181.93.93 0 01.5-.45c.113.173.295.332.547.48.251.146.561.218.928.218.272 0 .542-.066.812-.201.258-.127.494-.295.699-.497l.213.203zM144.844 17.793c0-.227-.008-.442-.024-.648a1.42 1.42 0 00-.111-.502c-.038-.09-.123-.147-.254-.175a13.37 13.37 0 01-.513-.117v-.271c.203.016.418.028.648.034.484.016.969.016 1.453 0 .229-.007.446-.018.648-.034v.272c-.211.051-.382.091-.513.117-.132.028-.217.085-.255.175a1.398 1.398 0 00-.111.502 8.729 8.729 0 00-.024.648v2.341l3.222-3.186a.53.53 0 00-.123-.327c-.047-.06-.135-.108-.266-.142a34.956 34.956 0 00-.513-.128v-.272c.203.016.42.028.648.034.484.016.969.016 1.453 0 .229-.007.445-.018.648-.034v.272c-.17.043-.342.082-.514.117-.13.028-.216.085-.254.175a1.42 1.42 0 00-.111.502 9.35 9.35 0 00-.022.648v2.251c0 .227.007.439.022.636.014.199.052.362.111.491.038.09.123.156.255.196.13.042.302.08.513.118v.27a17.498 17.498 0 00-1.374-.044c-.459-.003-.917.012-1.374.044v-.27c.211-.038.381-.076.513-.118.131-.041.216-.107.253-.197.06-.127.098-.291.112-.491.016-.196.024-.41.024-.635V17.59l-3.222 3.188a.748.748 0 00.113.415c.044.083.136.143.27.179.135.038.308.076.519.113v.27a17.498 17.498 0 00-1.374-.044c-.459-.003-.917.012-1.374.044v-.27c.211-.038.381-.076.513-.118.131-.041.216-.107.254-.197.059-.127.097-.291.111-.491.016-.196.024-.41.024-.635l-.001-2.251zm8.873 4.031c-.188 0-.362-.011-.523-.034a15.139 15.139 0 01-.912-.158 4.706 4.706 0 00-.457-.068c.03-.224.054-.415.074-.573.029-.24.047-.48.056-.721.004-.09.009-.187.017-.293h.293c.015.135.043.289.085.462.041.173.103.327.186.463.067.111.21.218.427.32.219.102.47.151.755.151.466 0 .812-.091 1.036-.274.227-.185.339-.495.339-.93 0-.406-.141-.722-.423-.952-.281-.229-.647-.345-1.098-.345-.091 0-.205.003-.343.007a4.452 4.452 0 00-.4.027c.015-.059.024-.137.027-.23.005-.094.009-.183.017-.264.059.008.148.011.264.011h.277c.293 0 .528-.038.703-.113.177-.075.312-.165.406-.27a.792.792 0 00.186-.344 1.39 1.39 0 00.044-.333c0-.194-.03-.352-.091-.472a.677.677 0 00-.235-.276.81.81 0 00-.332-.123 1.903 1.903 0 00-.862.044c-.179.047-.312.113-.395.195a1.296 1.296 0 00-.258.383 8.317 8.317 0 00-.192.463h-.293c.015-.241.028-.459.038-.654.012-.194.017-.419.017-.675.118-.007.234-.024.349-.051l.367-.085a4.28 4.28 0 01.951-.101c.256 0 .502.025.738.074.237.048.446.128.626.236.179.109.321.251.427.422.106.175.159.379.159.619a.914.914 0 01-.146.53 1.433 1.433 0 01-.355.361 1.597 1.597 0 01-.439.219c-.156.05-.284.085-.39.109v.044c.143.016.312.045.507.091.195.044.383.126.564.242.181.116.331.278.456.485.123.205.186.474.186.803 0 .294-.067.542-.203.745a1.515 1.515 0 01-.54.491c-.225.123-.484.21-.778.264a5.16 5.16 0 01-.912.078m3.514-3.074c0-.42.088-.799.264-1.137.177-.338.412-.625.704-.862a3.27 3.27 0 01.997-.546 3.516 3.516 0 011.154-.193c.502 0 .937.084 1.306.249.367.164.667.385.901.658.231.274.406.585.517.935.113.349.17.708.17 1.076 0 .421-.089.809-.264 1.166-.172.35-.411.661-.704.918a3.311 3.311 0 01-2.152.811c-.51 0-.947-.091-1.31-.276a2.644 2.644 0 01-.897-.715 3.001 3.001 0 01-.517-.985 3.795 3.795 0 01-.169-1.099m3.007-2.252c-.676 0-1.169.188-1.48.565-.312.378-.467.903-.467 1.575 0 .337.03.667.094.992s.174.613.327.863c.155.25.355.453.602.612.248.157.557.236.924.236.338 0 .629-.057.873-.168.244-.112.446-.271.608-.478.161-.206.28-.447.355-.728.076-.28.113-.589.113-.926a4.49 4.49 0 00-.102-.963 2.475 2.475 0 00-.328-.814 1.637 1.637 0 00-.597-.56c-.246-.138-.554-.207-.922-.206m5.82 2.05c.068-.016.162-.026.281-.034a4.339 4.339 0 011.245.085c.277.056.542.158.783.304.226.138.406.312.547.524.138.21.208.462.208.754 0 .24-.049.458-.146.653a1.425 1.425 0 01-.416.5 2.11 2.11 0 01-.648.328 2.836 2.836 0 01-.839.118 7.82 7.82 0 01-.71-.034 8.043 8.043 0 00-.776-.034c-.459-.003-.918.012-1.375.044v-.27l.514-.128c.131-.034.215-.096.253-.187.06-.127.098-.291.112-.491.016-.196.024-.41.024-.635v-2.251c0-.227-.008-.438-.024-.637a1.378 1.378 0 00-.112-.489c-.038-.092-.123-.153-.253-.187a32.542 32.542 0 00-.514-.128v-.273c.203.016.418.028.648.034.228.008.471.011.727.011h.449c.337 0 .733-.008 1.183-.022a42.72 42.72 0 011.475-.024c-.061.456-.106.915-.135 1.374h-.271a4.154 4.154 0 00-.159-.428 1.24 1.24 0 00-.179-.304.329.329 0 00-.162-.101 1.424 1.424 0 00-.231-.051 2.577 2.577 0 00-.247-.023 10.232 10.232 0 00-.581 0c-.139.004-.336.017-.592.04a1.326 1.326 0 00-.038.213 5.288 5.288 0 00-.041.653v1.096zm0 1.441c0 .24.004.458.011.653.009.195.039.342.091.44.052.096.157.162.312.196.153.034.305.051.455.051.133-.001.265-.018.394-.051a.892.892 0 00.366-.187 1.04 1.04 0 00.27-.354c.078-.175.115-.365.109-.557 0-.383-.127-.684-.379-.901-.251-.217-.592-.326-1.019-.326a3.648 3.648 0 00-.609.044l-.001.992zm5.858.056c0 .227.008.438.024.636.014.2.052.362.112.491.038.089.145.152.328.186.179.032.4.076.664.129v.27a27.334 27.334 0 00-2.326-.034 16.79 16.79 0 00-.648.034v-.27c.212-.053.382-.097.514-.129.13-.034.215-.097.253-.186a1.41 1.41 0 00.111-.491c.016-.212.024-.424.024-.636v-2.25c0-.227-.008-.438-.024-.638a1.416 1.416 0 00-.111-.488c-.038-.092-.123-.153-.253-.186a45.826 45.826 0 00-.514-.129v-.271c.405.03.811.045 1.218.045.235-.005.47-.018.704-.04l.355-.033c.111-.012.205-.017.281-.017.734 0 1.293.16 1.672.478.379.319.568.75.568 1.289 0 .247-.05.479-.151.694a1.695 1.695 0 01-.423.556 1.89 1.89 0 01-.653.366c-.255.087-.536.13-.846.13-.111 0-.234-.013-.364-.04a1.244 1.244 0 01-.288-.08v-.264c.07.017.142.028.214.034.082.009.177.011.281.011.255 0 .463-.049.62-.145a1.06 1.06 0 00.354-.351c.078-.136.132-.281.158-.436.024-.132.037-.266.04-.4 0-.303-.042-.545-.123-.731a1.126 1.126 0 00-.305-.423.929.929 0 00-.383-.194 1.719 1.719 0 00-.371-.045c-.106 0-.213.005-.321.011-.121.01-.24.033-.356.068a7.442 7.442 0 00-.027.558c-.004.222-.007.444-.007.67l-.001 2.251zm6.949-.012a3.974 3.974 0 00-.362-.023h-1.119c-.125 0-.259.008-.401.023l-.225.597c-.03.076-.06.16-.091.255a.846.846 0 00-.045.264c0 .052.025.098.073.134.05.038.11.07.182.096.081.029.163.052.247.068.094.019.185.039.276.061v.247a18.125 18.125 0 00-.523-.044 10.772 10.772 0 00-.762-.024 5.384 5.384 0 00-.568.024c-.145.014-.277.03-.389.044v-.247c.107-.015.212-.038.315-.068.107-.03.2-.068.283-.111.119-.06.214-.176.285-.345l.198-.467 1.734-4.505h.271l1.858 4.561c.059.136.116.261.169.377.052.117.109.212.17.288.071.074.16.13.258.162.113.042.233.077.361.108v.247a1.821 1.821 0 00-.209-.017l-.302-.009-.334-.012a6.62 6.62 0 00-.281-.006c-.362 0-.657.004-.89.01a7.515 7.515 0 00-.541.034v-.247c.17-.03.338-.074.502-.129a.672.672 0 00.179-.096.162.162 0 00.073-.134.726.726 0 00-.06-.271 9.706 9.706 0 01-.096-.236l-.236-.609zm-.732-.473h.315c.059 0 .132-.007.213-.022l-.743-1.881h-.045l-.697 1.881c.085.015.171.022.258.022h.699zm5.359 2.264c-.189 0-.363-.011-.523-.034a14.742 14.742 0 01-.913-.158 4.706 4.706 0 00-.457-.068c.03-.224.054-.415.074-.573.029-.24.047-.48.056-.721.005-.09.009-.187.017-.293h.294c.014.135.043.289.085.462.041.173.102.327.185.463.068.111.21.218.428.32.219.102.469.151.755.151.465 0 .812-.091 1.036-.274.226-.185.338-.495.338-.93 0-.406-.14-.722-.421-.952-.283-.229-.648-.345-1.099-.345-.091 0-.206.003-.343.007a4.474 4.474 0 00-.401.027c.015-.059.024-.137.027-.23.005-.094.011-.183.018-.264.059.008.147.011.264.011h.276c.294 0 .529-.038.704-.113.176-.075.311-.165.406-.27a.792.792 0 00.186-.344 1.39 1.39 0 00.044-.333 1.08 1.08 0 00-.09-.472.685.685 0 00-.236-.276.81.81 0 00-.332-.123 1.903 1.903 0 00-.862.044.883.883 0 00-.395.195 1.318 1.318 0 00-.259.383 7.61 7.61 0 00-.191.463h-.294c.016-.241.028-.459.038-.654.012-.194.019-.419.019-.675.118-.007.234-.024.349-.051l.365-.085c.312-.07.632-.103.951-.101.255 0 .501.025.737.074.237.048.446.128.626.236.179.109.322.251.428.422.105.175.158.379.158.619a.913.913 0 01-.145.53 1.45 1.45 0 01-.355.361 1.575 1.575 0 01-.44.219 4.56 4.56 0 01-.389.109v.044c.143.016.312.045.507.091.195.044.383.126.563.242.181.116.332.278.456.485.125.205.187.474.187.803 0 .294-.068.542-.204.745a1.527 1.527 0 01-.538.491c-.227.123-.486.21-.779.264-.3.053-.606.079-.911.078m4.303-4.031c0-.227-.008-.442-.024-.648a1.42 1.42 0 00-.111-.502c-.038-.09-.123-.147-.254-.175a13.37 13.37 0 01-.513-.117v-.271c.203.016.418.028.648.034.484.016.969.016 1.453 0 .229-.007.445-.018.648-.034v.272c-.17.042-.341.081-.513.117-.132.028-.217.085-.255.175a1.398 1.398 0 00-.111.502 8.729 8.729 0 00-.024.648v2.341l3.222-3.186a.53.53 0 00-.123-.327c-.047-.06-.135-.108-.266-.142a34.956 34.956 0 00-.513-.128v-.272c.203.016.42.028.648.034.484.016.969.016 1.453 0 .229-.007.445-.018.648-.034v.272c-.17.043-.342.082-.514.117-.13.028-.216.085-.254.175a1.42 1.42 0 00-.111.502 9.35 9.35 0 00-.022.648v2.251c0 .227.007.439.022.636.014.199.052.362.111.491.038.09.123.156.255.196.13.042.302.08.513.118v.27a17.498 17.498 0 00-1.374-.044c-.459-.003-.917.012-1.374.044v-.27c.211-.038.381-.076.513-.118.131-.041.215-.107.253-.197.06-.127.098-.291.112-.491.016-.196.024-.41.024-.635V17.59l-3.222 3.188a.748.748 0 00.113.415c.044.083.136.143.27.179.135.038.307.076.519.113v.27a17.498 17.498 0 00-1.374-.044c-.459-.003-.917.012-1.374.044v-.27c.21-.038.381-.076.513-.118.131-.041.216-.107.254-.197.059-.127.097-.291.111-.491.016-.196.024-.41.024-.635l-.001-2.251zm8.782 0c0-.227-.004-.43-.009-.609-.01-.195-.025-.391-.046-.585a2.699 2.699 0 00-.36-.024h-.349c-.098 0-.224.009-.378.028a.903.903 0 00-.411.153.674.674 0 00-.214.281 8.393 8.393 0 00-.192.484h-.293c.038-.227.065-.467.085-.727l.05-.737c.202.016.453.029.755.045.299.014.619.023.956.023h1.756c.616.001 1.233-.021 1.847-.068a84.72 84.72 0 00-.111.727c-.016.109-.03.223-.047.344l-.043.394h-.293a2.646 2.646 0 00-.094-.45c-.05-.165-.111-.278-.188-.339a.678.678 0 00-.298-.124 3.125 3.125 0 00-.512-.034h-.294c-.134 0-.236.008-.303.024-.023.218-.04.415-.051.591a9.337 9.337 0 00-.017.603v2.251c0 .227.008.439.022.636.016.199.054.362.113.491.038.09.142.154.31.192.169.038.359.077.569.123v.27a18.324 18.324 0 00-.704-.034 31.405 31.405 0 00-1.565 0c-.267.008-.501.02-.703.034v-.27c.21-.045.398-.085.568-.123s.272-.102.31-.193c.067-.156.105-.322.113-.491a8.4 8.4 0 00.021-.635v-2.251zm6.104 1.238a7.49 7.49 0 00-.304.006 2.098 2.098 0 00-.237.028v.98c0 .227.004.43.012.614s.022.363.045.535c.127.03.295.049.5.056.208.008.413.012.614.012.174 0 .372-.009.598-.029.225-.018.391-.061.495-.129a1.18 1.18 0 00.312-.315c.101-.142.211-.337.331-.585h.292c-.111.513-.19 1.031-.236 1.554a20.361 20.361 0 00-1.019-.038 27.483 27.483 0 00-.642-.007h-1.982a15.203 15.203 0 00-1.166.044v-.269c.211-.052.379-.096.506-.129.128-.033.214-.095.261-.186.059-.126.097-.291.111-.491.016-.197.024-.41.024-.635v-2.251c0-.227-.008-.438-.024-.637a1.399 1.399 0 00-.111-.49c-.038-.091-.123-.152-.254-.186l-.513-.129v-.274c.255.02.511.034.766.041.135.003.263.006.382.006h.676c.165 0 .366-.003.602-.006.237-.004.488-.009.755-.017a55.935 55.935 0 011.639-.024c-.107.438-.189.882-.247 1.33h-.271a5.655 5.655 0 00-.095-.389.8.8 0 00-.154-.298c-.076-.09-.21-.143-.404-.158a7.228 7.228 0 00-.551-.022h-.238c-.076 0-.155 0-.243.005-.085.004-.183.009-.292.017-.133.009-.266.017-.399.023-.039.105-.06.277-.068.512-.009.237-.012.467-.012.694v.754c.084.014.164.024.243.027.079.004.179.007.298.007h.315c.165 0 .332-.008.501-.024.169-.014.295-.068.378-.157a.998.998 0 00.157-.227c.047-.095.089-.192.125-.292h.271a7.684 7.684 0 00-.057.922c0 .151.002.293.006.423.004.132.017.298.04.501h-.27a3.196 3.196 0 00-.113-.31.792.792 0 00-.168-.242c-.076-.076-.199-.118-.374-.13a7.44 7.44 0 00-.495-.017l-.316.002zm7.704-.675v-.467a21.8 21.8 0 00-.005-.517 8.97 8.97 0 00-.024-.463 2.173 2.173 0 00-.04-.31 6.861 6.861 0 00-.573-.024h-.203c-.142 0-.283.008-.418.024a.667.667 0 00-.326.112c-.076.06-.129.17-.163.332a12.42 12.42 0 00-.118.703l-.09.619c-.031.211-.068.455-.113.733-.052.316-.118.63-.196.94a6.563 6.563 0 01-.287.839c-.136.315-.314.552-.536.71a1.17 1.17 0 01-.692.236.554.554 0 01-.237-.06.913.913 0 01-.394-.391.498.498 0 01-.068-.247.45.45 0 01.068-.236.79.79 0 01.162-.197.72.72 0 01.214-.129.616.616 0 01.22-.044c.06.149.128.264.209.349.078.081.16.124.241.124.196 0 .369-.208.519-.621.114-.312.201-.634.26-.961.074-.387.142-.772.202-1.154.029-.204.056-.402.079-.597a4.24 4.24 0 00.034-.474 1.411 1.411 0 00-.034-.349.485.485 0 00-.123-.214.797.797 0 00-.34-.157 15.85 15.85 0 00-.472-.112v-.294c.202.016.415.03.641.046.226.014.465.022.72.022h2.366c.255 0 .497-.008.721-.022.225-.016.439-.03.642-.046v.294c-.211.052-.381.094-.514.129-.132.033-.216.094-.252.186a.884.884 0 00-.067.287c-.035.31-.056.622-.063.935-.004.17-.005.325-.005.467v1.126c0 .142 0 .298.005.467.007.312.028.624.063.935a.901.901 0 00.067.288c.036.089.121.152.252.186.132.032.303.076.514.129v.293c-.205-.017-.41-.032-.615-.045a11.01 11.01 0 00-.704-.022c-.255 0-.506.008-.755.022-.246.014-.472.03-.674.046v-.294c.21-.053.38-.097.512-.129.132-.034.217-.097.253-.186a.912.912 0 00.068-.287c.05-.466.073-.934.068-1.402l.001-1.128zm4.549.146c.093-.018.187-.029.281-.034a4.685 4.685 0 011.245.079c.296.059.557.158.783.293.226.135.406.312.547.529.138.219.208.488.208.812 0 .24-.049.458-.146.653a1.418 1.418 0 01-.416.5 2.072 2.072 0 01-.648.327 2.804 2.804 0 01-.839.119c-.237 0-.474-.012-.71-.034a8.377 8.377 0 00-.776-.034c-.256 0-.498.005-.727.011-.23.008-.446.019-.648.034v-.27c.211-.053.381-.097.514-.129.131-.034.215-.097.253-.186a1.39 1.39 0 00.112-.491 7.91 7.91 0 00.024-.635v-2.253c0-.225-.008-.437-.024-.637a1.368 1.368 0 00-.112-.488c-.038-.092-.123-.152-.253-.186a45.826 45.826 0 00-.514-.129v-.273c.458.031.917.047 1.375.046.496 0 .991-.016 1.486-.046v.272c-.21.044-.401.085-.568.123-.17.038-.274.101-.311.193-.067.154-.105.32-.112.488a7.975 7.975 0 00-.023.637l-.001.709zm0 1.487c0 .24.003.457.01.653.009.195.039.341.091.439s.157.162.312.196c.153.034.305.051.455.051.133-.001.265-.018.394-.051a.89.89 0 00.366-.186c.115-.097.207-.218.27-.355.078-.175.115-.365.109-.556 0-.406-.127-.719-.379-.941s-.592-.332-1.019-.332a3.425 3.425 0 00-.608.045l-.001 1.037zm4.731-2.196c0-.227-.008-.442-.025-.648a1.42 1.42 0 00-.111-.502c-.038-.09-.123-.147-.253-.175a13.795 13.795 0 01-.514-.117v-.271c.204.016.418.028.648.034.484.016.969.016 1.454 0 .228-.007.444-.018.648-.034v.272c-.211.051-.382.091-.513.117-.132.028-.217.085-.255.175a1.42 1.42 0 00-.111.502 8.729 8.729 0 00-.024.648v.743c.113.015.269.025.467.034.2.008.419.011.661.011h.854c.241 0 .461-.004.661-.011.196-.008.353-.019.465-.034v-.743c0-.227-.006-.442-.022-.648a1.467 1.467 0 00-.113-.502c-.037-.09-.122-.147-.253-.175a12.966 12.966 0 01-.512-.117v-.272c.203.016.417.028.647.034.484.016.969.016 1.454 0 .228-.007.444-.018.646-.034v.272c-.21.051-.379.091-.512.117-.132.028-.215.085-.253.175a1.444 1.444 0 00-.113.502 9.352 9.352 0 00-.023.648v2.251c0 .227.009.439.023.636.015.199.054.362.113.491.038.09.121.156.253.196.132.042.302.08.512.118v.27a17.002 17.002 0 00-1.373-.044c-.458-.003-.916.012-1.372.044v-.27c.21-.038.379-.076.512-.118.132-.041.217-.107.254-.197.06-.127.096-.291.112-.491.016-.196.022-.41.022-.635v-.968a5.584 5.584 0 00-.466-.034c-.22-.008-.44-.012-.66-.011h-.855c-.241 0-.46.004-.66.011a5.608 5.608 0 00-.467.034v.968c0 .227.008.439.024.636.014.199.053.362.112.491.038.09.123.156.254.196.13.042.301.08.513.118v.27a17.473 17.473 0 00-1.373-.044c-.459-.003-.917.012-1.374.044v-.27c.211-.038.38-.076.513-.118.13-.041.215-.107.253-.197.059-.127.097-.291.111-.491.016-.196.024-.41.024-.635l-.003-2.252zm8.602.709c.093-.018.187-.029.281-.034a4.685 4.685 0 011.245.079c.297.059.557.158.783.293.225.135.406.312.546.529.139.219.208.488.208.812 0 .24-.048.458-.146.653-.098.197-.24.368-.415.5a2.072 2.072 0 01-.648.327 2.811 2.811 0 01-.84.119 7.63 7.63 0 01-.709-.034 8.377 8.377 0 00-.776-.034c-.257 0-.499.005-.728.011a16.79 16.79 0 00-.648.034v-.27l.514-.129c.131-.034.216-.097.254-.186a1.41 1.41 0 00.111-.491 7.91 7.91 0 00.024-.635v-2.253c0-.225-.008-.437-.024-.637a1.388 1.388 0 00-.111-.488c-.038-.092-.123-.152-.254-.186a45.826 45.826 0 00-.514-.129v-.273c.458.031.917.047 1.375.046.496 0 .991-.016 1.486-.046v.272c-.21.044-.4.085-.568.123-.169.038-.273.101-.311.193-.067.155-.104.32-.111.488a8.475 8.475 0 00-.024.637v.709zm0 1.487c0 .24.004.457.011.653.008.195.038.341.091.439.051.098.156.162.311.196.153.034.305.051.455.051.128 0 .26-.017.395-.051a.899.899 0 00.365-.186c.109-.091.2-.208.27-.355.078-.175.115-.365.109-.556 0-.406-.126-.719-.378-.941-.252-.222-.593-.332-1.019-.332a3.45 3.45 0 00-.609.045l-.001 1.037zm3.897-2.197c0-.225-.008-.441-.022-.648a1.483 1.483 0 00-.112-.5c-.038-.092-.123-.148-.254-.176a11.195 11.195 0 01-.513-.117v-.271c.457.031.915.047 1.373.046.458.001.916-.015 1.373-.046v.272c-.21.052-.379.092-.512.117-.132.027-.215.085-.253.175a1.421 1.421 0 00-.113.501 9.352 9.352 0 00-.023.648v2.253c0 .226.008.437.023.635.015.2.053.362.113.491.038.089.122.156.253.196.132.042.302.081.512.119v.27a15.48 15.48 0 00-.647-.034 25.104 25.104 0 00-1.452 0c-.23.008-.447.019-.648.034v-.27c.173-.029.344-.069.513-.119.132-.041.217-.108.255-.196.059-.128.094-.291.111-.491a9.01 9.01 0 00.022-.635l.001-2.254zm7.005 2.207c.308.413.533.715.677.901.142.189.255.308.338.361a.8.8 0 00.302.128c.121.028.244.059.373.096v.27c-.112-.008-.214-.014-.304-.022a6.976 6.976 0 00-.597-.023h-.406c-.299 0-.593.004-.878.01-.222.005-.444.016-.665.034v-.27c.071-.011.141-.026.21-.045.085-.023.169-.047.247-.073a.8.8 0 00.203-.095c.057-.038.084-.079.084-.123a.35.35 0 00-.044-.137 1.874 1.874 0 00-.119-.197 8.686 8.686 0 00-.333-.455l-.776-1.048-.653.923c-.149.217-.28.402-.388.552-.109.149-.164.271-.164.361 0 .038.027.073.079.107.053.034.115.065.192.094.075.03.158.057.247.08l.236.057v.269a14.211 14.211 0 00-.618-.034 26.849 26.849 0 00-1.447 0c-.17.008-.344.02-.524.034v-.27a9.69 9.69 0 00.383-.09 3.76 3.76 0 00.428-.135c.113-.044.221-.115.328-.209a2.94 2.94 0 00.308-.326c.102-.125.204-.256.305-.396.101-.138.201-.275.298-.411l.71-.98-1.329-1.768a12.007 12.007 0 01-.309-.399.679.679 0 00-.321-.243 3.415 3.415 0 00-.345-.102 8.239 8.239 0 00-.354-.077v-.268a12.995 12.995 0 002.117.045c.247-.015.45-.028.609-.045v.272a1.8 1.8 0 00-.349.107c-.121.048-.18.103-.18.163 0 .067.039.157.117.27.08.113.217.3.413.563l.506.687.507-.732c.142-.21.25-.375.327-.491a.577.577 0 00.113-.297c0-.068-.061-.125-.181-.17a2.162 2.162 0 00-.371-.1v-.272c.135.008.278.017.427.028.151.012.369.017.654.017.27 0 .504-.004.704-.011a6.23 6.23 0 00.5-.034v.272l-.4.077a3.387 3.387 0 00-.432.113c-.136.045-.264.146-.389.304-.123.158-.292.391-.501.699l-.675.957 1.11 1.497zm6.396-2.206c0-.227-.007-.442-.023-.648a1.4 1.4 0 00-.112-.502c-.038-.09-.123-.147-.253-.175a13.37 13.37 0 01-.513-.117v-.271c.203.016.417.028.647.034.484.016.969.016 1.454 0 .229-.007.444-.018.648-.034v.272c-.17.042-.341.081-.513.117-.132.028-.217.085-.255.175a1.398 1.398 0 00-.111.502 8.729 8.729 0 00-.024.648v2.341l3.222-3.186a.53.53 0 00-.123-.327c-.047-.06-.135-.108-.265-.142a29.666 29.666 0 00-.514-.128v-.272c.204.016.42.028.648.034.484.016.969.016 1.454 0 .228-.007.444-.018.648-.034v.272c-.17.043-.341.082-.513.117-.131.028-.217.085-.255.175a1.42 1.42 0 00-.111.502 9.35 9.35 0 00-.022.648v2.251c0 .227.007.439.022.636.014.199.053.362.112.491.038.09.123.156.254.196.13.042.302.08.513.118v.27a17.473 17.473 0 00-1.373-.044c-.459-.003-.917.012-1.374.044v-.27c.21-.038.38-.076.513-.118.13-.041.215-.107.253-.197.06-.127.097-.291.111-.491.016-.196.024-.41.024-.635V17.59l-3.222 3.188c0 .051.007.111.017.179a.774.774 0 00.097.236c.044.083.135.143.269.179.136.038.308.076.519.113v.27a17.473 17.473 0 00-1.373-.044c-.459-.003-.917.012-1.374.044v-.27c.21-.038.38-.076.513-.118.13-.041.215-.107.253-.197.06-.127.098-.291.112-.491.016-.196.023-.41.023-.635l-.003-2.251zm12.094 3.693c-.186.044-.361.089-.517.129a7.978 7.978 0 01-.906.181 4.184 4.184 0 01-1.774-.169 2.892 2.892 0 01-1.019-.568 2.646 2.646 0 01-.66-.897 2.849 2.849 0 01-.236-1.187c0-.465.078-.883.236-1.25.149-.356.376-.673.665-.93a3.025 3.025 0 011.019-.58c.423-.14.867-.208 1.312-.203.195 0 .376.014.54.041.166.025.326.056.48.09l.463.101c.153.033.321.061.5.084a7.895 7.895 0 00-.108.592c-.031.238-.055.476-.073.716h-.27a4.184 4.184 0 00-.22-.559.933.933 0 00-.253-.343c-.24-.181-.615-.271-1.126-.271-.33 0-.627.059-.89.176-.255.11-.482.276-.665.484a2.118 2.118 0 00-.411.743c-.094.29-.142.602-.142.94 0 .352.047.684.136.996.091.312.227.585.411.817.184.232.417.416.699.552.282.135.614.201.997.201.232 0 .449-.025.647-.078.189-.047.367-.131.524-.247.106-.082.212-.217.321-.406a4.38 4.38 0 00.277-.552h.271l-.051.277-.057.298c-.019.106-.038.224-.057.355-.02.132-.04.288-.063.467m3.041-1.441c0 .227.008.438.024.636.014.2.052.362.112.491.038.089.123.152.254.186l.512.129v.27a16.425 16.425 0 00-.693-.034 25.698 25.698 0 00-1.362-.001c-.259.008-.491.019-.694.035v-.27c.212-.053.382-.097.514-.129.13-.034.215-.097.253-.186.06-.128.097-.291.111-.491.016-.198.024-.41.024-.636v-2.25c0-.227-.008-.438-.024-.638a1.393 1.393 0 00-.111-.488c-.038-.092-.123-.153-.253-.186a45.826 45.826 0 00-.514-.129v-.271c.204.015.434.027.694.034.647.023 1.296.011 1.942-.034v.271c-.21.052-.362.094-.456.129a.312.312 0 00-.196.186c-.067.154-.105.32-.112.488a8.481 8.481 0 00-.024.638v2.25h-.001zm.136-1.249l1.397-1.421c.247-.255.423-.434.529-.54.104-.104.159-.188.159-.248 0-.059-.059-.106-.176-.14a4.047 4.047 0 00-.434-.095v-.271c.196.015.366.027.513.034.147.008.307.011.48.011.217 0 .433-.004.647-.011.215-.007.415-.019.603-.034v.271c-.18.03-.33.061-.45.094a1.16 1.16 0 00-.338.158 3.148 3.148 0 00-.354.287c-.132.122-.299.281-.502.484l-1.114 1.104 1.677 1.959c.142.175.272.316.387.43.117.111.227.206.333.281.106.074.214.137.327.185.112.05.244.1.395.153v.27a13.842 13.842 0 00-.457-.04 6.215 6.215 0 00-.41-.017 4.987 4.987 0 00-.711.057c-.18-.219-.338-.406-.472-.564a24.603 24.603 0 01-.361-.428l-1.668-1.969zm6.16-2.084c0 .083.047.212.146.388.097.177.251.452.462.828l.958 1.701h.044l.968-2.048a28 28 0 00.237-.536.868.868 0 00.078-.332c0-.044-.024-.088-.074-.129a.549.549 0 00-.191-.101 3.449 3.449 0 00-.547-.129l.001-.271c.401.03.804.045 1.206.045.316 0 .632-.015.946-.045v.271a2.97 2.97 0 00-.259.083 2.176 2.176 0 00-.261.118c-.105.06-.21.198-.315.413-.105.213-.244.504-.416.872l-1.238 2.556a7.645 7.645 0 01-.417.778c-.12.187-.236.33-.349.427a.796.796 0 01-.337.187 1.653 1.653 0 01-.384.039c-.261 0-.517-.048-.765-.145 0-.308-.008-.583-.024-.822a13.377 13.377 0 00-.044-.564h.294c.06.142.118.274.173.394.058.121.115.222.176.305a.483.483 0 00.198.185c.063.027.132.04.206.04a.53.53 0 00.34-.118c.097-.079.194-.227.293-.446l-1.61-2.702a75.511 75.511 0 00-.552-.907c-.165-.265-.311-.43-.44-.491a6.774 6.774 0 00-.309-.118 2.447 2.447 0 00-.277-.083v-.271c.173.015.379.027.619.034.458.014.916.014 1.373 0a13.6 13.6 0 00.654-.034v.271a4.767 4.767 0 01-.17.051 1.208 1.208 0 00-.186.066.58.58 0 00-.145.101.188.188 0 00-.062.139m9.888 4.774c-.188.044-.362.089-.519.129a7.978 7.978 0 01-.906.181 4.184 4.184 0 01-1.773-.169 2.892 2.892 0 01-1.019-.568 2.646 2.646 0 01-.66-.897 2.849 2.849 0 01-.236-1.187c0-.465.078-.883.236-1.25.149-.356.376-.673.665-.93a3.025 3.025 0 011.019-.58 4.027 4.027 0 011.312-.203c.194 0 .376.014.54.041.166.025.326.056.48.09l.463.101c.153.033.32.061.5.084a7.895 7.895 0 00-.108.592c-.031.238-.055.476-.073.716h-.27a4.184 4.184 0 00-.22-.559.933.933 0 00-.253-.343c-.241-.181-.615-.271-1.127-.271a2.16 2.16 0 00-.89.176c-.254.11-.481.276-.664.484a2.118 2.118 0 00-.411.743c-.094.29-.142.602-.142.94 0 .352.047.684.136.996.091.312.227.585.411.817.184.232.417.416.699.552.281.135.614.201.997.201.232 0 .448-.025.647-.078.189-.047.367-.131.524-.247.106-.082.212-.217.321-.406a4.52 4.52 0 00.277-.552h.271c-.033.192-.07.384-.109.576-.019.104-.037.223-.057.354l-.061.467m6.418 0c-.187.044-.361.089-.518.129a7.978 7.978 0 01-.906.181 4.195 4.195 0 01-1.774-.169 2.892 2.892 0 01-1.019-.568 2.643 2.643 0 01-.659-.897 2.849 2.849 0 01-.236-1.187c0-.465.078-.883.236-1.25.158-.368.379-.678.665-.93a3.025 3.025 0 011.019-.58 4.027 4.027 0 011.312-.203c.194 0 .376.014.54.041.165.025.326.056.479.09l.463.101c.153.033.321.061.501.084a7.9 7.9 0 00-.109.592c-.03.238-.054.476-.072.716h-.27a4.19 4.19 0 00-.221-.559.933.933 0 00-.253-.343c-.24-.181-.615-.271-1.126-.271-.33 0-.627.059-.89.176-.255.11-.482.276-.665.484a2.1 2.1 0 00-.41.743c-.094.29-.142.602-.142.94 0 .352.047.684.136.996.09.312.227.585.41.817.188.235.427.424.699.552.281.135.614.201.997.201.232 0 .448-.025.646-.078a1.49 1.49 0 00.525-.247c.105-.082.212-.217.321-.406a4.52 4.52 0 00.277-.552h.271c-.033.192-.07.384-.109.576-.019.104-.037.223-.057.354l-.061.467m3.108-3.693a9.155 9.155 0 00-.057-1.194 2.695 2.695 0 00-.359-.024h-.349c-.098 0-.224.009-.378.028a.903.903 0 00-.411.153.674.674 0 00-.214.281 8.393 8.393 0 00-.192.484h-.293c.038-.227.065-.467.085-.727l.051-.737c.201.016.453.029.753.045.3.014.619.023.957.023h1.756c.617.001 1.233-.021 1.848-.068-.039.242-.076.484-.113.727l-.045.344c-.014.12-.03.251-.044.394h-.293a2.648 2.648 0 00-.095-.45c-.049-.165-.11-.278-.187-.339a.678.678 0 00-.298-.124 3.125 3.125 0 00-.512-.034h-.294c-.134 0-.236.008-.303.024-.023.218-.04.415-.051.591a8.672 8.672 0 00-.018.603v2.251c0 .227.009.439.023.636.016.199.054.362.113.491.038.09.142.154.31.192.17.038.359.077.569.123v.27a18.324 18.324 0 00-.704-.034 31.405 31.405 0 00-1.565 0c-.267.008-.502.02-.703.034v-.27c.21-.045.398-.085.568-.123.17-.038.272-.102.31-.193a1.41 1.41 0 00.111-.491c.016-.196.023-.41.023-.635l.001-2.251zm4.978-1.667c.195 0 .387-.012.575-.034.187-.023.423-.034.708-.034.204 0 .413.018.632.056.217.038.413.104.591.197.177.093.321.225.432.395.113.168.17.384.17.648a.952.952 0 01-.136.518 1.163 1.163 0 01-.332.349 1.752 1.752 0 01-.415.213c-.131.049-.265.09-.4.124v.045c.593.082 1.049.264 1.368.546.32.283.479.636.479 1.065 0 .211-.039.41-.118.597a1.27 1.27 0 01-.382.497 2.057 2.057 0 01-.682.343 3.455 3.455 0 01-1.002.129c-.113 0-.224-.004-.332-.011a15.503 15.503 0 00-.337-.022l-.374-.023a8.222 8.222 0 00-.444-.01c-.255 0-.479.004-.67.009-.192.008-.389.019-.592.034v-.27c.422-.105.677-.247.767-.427.059-.128.097-.274.111-.434.017-.193.025-.387.024-.581v-2.252c0-.225-.009-.438-.024-.637a1.416 1.416 0 00-.111-.488c-.047-.092-.132-.153-.261-.187a31.335 31.335 0 00-.507-.128v-.273c.42.033.841.048 1.262.046zm.585 2.298a.962.962 0 00.146.009h.159c.134 0 .274-.013.415-.043.143-.03.272-.085.39-.165a.939.939 0 00.287-.314.972.972 0 00.112-.489c0-.211-.031-.378-.094-.502a.72.72 0 00-.244-.281.801.801 0 00-.315-.123 1.886 1.886 0 00-.551-.018 2.08 2.08 0 00-.237.034 4.243 4.243 0 00-.051.551c-.01.248-.017.485-.017.71v.631zm0 1.621c0 .227.007.438.017.636.011.199.037.34.075.423.051.105.163.173.337.203.172.03.333.044.484.044.374 0 .655-.108.839-.321.183-.213.276-.491.276-.827 0-.406-.141-.731-.423-.976-.281-.244-.666-.364-1.154-.364h-.236c-.076 0-.146.004-.214.01l-.001 1.172zM144.844 30.147c0-.227-.008-.442-.024-.648a1.42 1.42 0 00-.111-.502c-.038-.09-.123-.147-.254-.174a11.94 11.94 0 01-.513-.118v-.271c.203.016.418.027.648.034.701.022 1.402.01 2.101-.034v.271c-.211.053-.382.092-.513.118-.132.026-.217.085-.255.174a1.398 1.398 0 00-.111.502 8.729 8.729 0 00-.024.648v2.342l3.222-3.187a.53.53 0 00-.123-.327c-.047-.06-.135-.108-.266-.142l-.513-.128v-.271c.203.016.42.027.648.034.701.022 1.402.01 2.101-.034v.271c-.17.043-.341.083-.514.118-.13.026-.216.085-.254.174a1.42 1.42 0 00-.111.502 9.35 9.35 0 00-.022.648v2.251c0 .227.007.439.022.636.014.2.052.362.111.491.038.09.123.156.255.196.13.042.302.081.513.118v.271a17.498 17.498 0 00-1.374-.044c-.459-.003-.917.012-1.374.044v-.27c.211-.038.381-.076.513-.118.131-.041.216-.107.253-.196a1.39 1.39 0 00.112-.491c.016-.198.024-.41.024-.636v-2.454l-3.222 3.188a.748.748 0 00.113.415c.044.083.136.143.27.179.135.038.308.076.519.113v.271a17.498 17.498 0 00-1.374-.044c-.459-.003-.917.012-1.374.044v-.271c.211-.038.381-.076.513-.118.131-.041.216-.107.254-.196a1.41 1.41 0 00.111-.491c.016-.198.024-.41.024-.636l-.001-2.252zm7.984.675a49.4 49.4 0 00.034-.602c.007-.17.009-.316.009-.444a3.264 3.264 0 00-.026-.396.84.84 0 00-.108-.337c-.059-.082-.17-.147-.332-.196a6.675 6.675 0 00-.557-.141v-.271c.204.023.404.036.601.04.2.003.396.006.592.006.159 0 .315-.006.474-.017l.371-.028c.076.194.141.362.197.501l.157.394c.109.273.227.541.355.805l.8 1.746c.075.157.137.293.187.404.047.113.094.211.14.294h.044c.083-.157.18-.363.294-.619l.698-1.52c.151-.33.292-.649.423-.957.131-.308.261-.653.389-1.036.119.016.266.025.439.028.173.003.318.006.44.006.194 0 .387-.004.58-.011.171-.006.341-.017.512-.034v.271c-.186.038-.37.085-.552.141-.158.049-.266.114-.326.196a.533.533 0 00-.057.164c-.03.138-.045.279-.044.421v.148c.007.312.019.623.034.935l.077 1.463c.015.278.038.541.068.788.03.248.076.435.135.564.038.09.123.152.254.186.13.032.302.077.513.129v.27a15.618 15.618 0 00-.648-.034 25.13 25.13 0 00-2.213.034v-.27c.21-.047.396-.085.563-.119.164-.034.27-.098.316-.196a.787.787 0 00.072-.26c.012-.098.017-.198.017-.304 0-.082-.003-.192-.005-.327l-.017-.463-.057-1.463a27.398 27.398 0 00-.028-.5 28.96 28.96 0 01-.028-.514h-.044c-.128.331-.267.658-.417.981l-.89 1.925c-.195.444-.339.779-.432 1.009-.094.229-.165.396-.21.5h-.271a57.933 57.933 0 00-.292-.68 18.713 18.713 0 00-.315-.694l-.98-2.129c-.052-.112-.094-.21-.129-.287a2.8 2.8 0 01-.085-.221 4.867 4.867 0 00-.067-.192 9.09 9.09 0 01-.08-.213h-.044c-.015.165-.028.345-.045.541-.014.195-.026.39-.034.585l-.043 1.239c-.014.274-.022.547-.023.821 0 .122.002.237.006.349.001.1.022.2.06.293.038.091.14.154.305.192s.352.078.564.125v.27a6.509 6.509 0 00-.608-.04 36.8 36.8 0 00-1.329 0 6.24 6.24 0 00-.563.04v-.27c.21-.052.396-.097.563-.129.165-.034.27-.096.315-.186.06-.128.11-.328.151-.598a8.52 8.52 0 00.085-.867l.065-1.239zm9.988.563a7.53 7.53 0 00-.304.006 2.08 2.08 0 00-.236.028v.98c0 .225.003.43.011.614.008.183.022.362.045.534.128.03.295.049.5.056.208.008.413.012.614.012.174 0 .372-.009.598-.028.225-.019.391-.062.496-.13.105-.067.208-.172.31-.314.102-.143.212-.338.332-.585h.293a12.52 12.52 0 00-.236 1.553 20.361 20.361 0 00-1.019-.038 45.948 45.948 0 00-.643-.007h-1.98c-.27 0-.541.008-.811.023-.14.008-.259.014-.356.022v-.27c.211-.052.379-.095.507-.128.127-.034.213-.096.26-.187a1.36 1.36 0 00.111-.491c.016-.211.024-.423.024-.634v-2.252a7.96 7.96 0 00-.024-.637 1.399 1.399 0 00-.111-.489c-.038-.091-.123-.153-.253-.187l-.514-.128v-.271c.255.02.511.033.766.04.135.003.263.006.383.006h.675c.166 0 .366-.003.602-.006.237-.004.489-.009.755-.017a55.935 55.935 0 011.639-.023c-.106.438-.189.882-.247 1.329h-.271a5.254 5.254 0 00-.096-.389.803.803 0 00-.152-.298c-.076-.09-.211-.143-.405-.158a7.228 7.228 0 00-.551-.022h-.237c-.178.003-.356.01-.534.022-.133.009-.267.017-.4.023-.038.105-.06.277-.068.512-.008.231-.012.462-.012.694v.755c.084.013.165.023.243.026.079.004.179.007.298.007h.315c.166 0 .332-.008.502-.024.168-.014.295-.068.378-.157.067-.076.119-.151.157-.227a2.78 2.78 0 00.124-.292h.271a7.684 7.684 0 00-.057.922c0 .151.003.293.007.423.004.132.017.298.039.501h-.27a3.196 3.196 0 00-.113-.31.775.775 0 00-.168-.241c-.076-.076-.199-.12-.373-.131a7.447 7.447 0 00-.496-.016l-.318-.001zm4.552-1.238c0-.227-.008-.442-.024-.648a1.4 1.4 0 00-.112-.502c-.038-.09-.123-.147-.253-.174a11.94 11.94 0 01-.513-.118v-.271c.203.016.417.027.647.034.701.022 1.402.01 2.101-.034v.271c-.211.053-.381.092-.513.118-.132.026-.217.085-.255.174a1.398 1.398 0 00-.111.502 8.729 8.729 0 00-.024.648v.743c.114.015.269.025.468.033.199.009.418.012.66.012h.855c.241 0 .46-.004.659-.012.198-.008.354-.018.467-.033v-.743c0-.227-.007-.442-.023-.648a1.443 1.443 0 00-.112-.502c-.038-.09-.123-.147-.254-.174a11.204 11.204 0 01-.513-.118v-.271c.204.016.418.027.648.034.7.022 1.401.011 2.099-.034v.271c-.211.053-.38.092-.513.118s-.215.085-.253.174a1.444 1.444 0 00-.113.502 9.35 9.35 0 00-.022.648v2.251c0 .227.008.439.023.636.015.2.053.362.113.491.037.09.121.156.252.196.132.042.302.081.513.118v.271a17.026 17.026 0 00-1.374-.044c-.458-.003-.916.012-1.373.044v-.27c.21-.038.381-.076.513-.118.132-.041.217-.107.255-.196a1.46 1.46 0 00.111-.491c.016-.198.023-.41.023-.636v-.968a5.608 5.608 0 00-.467-.034c-.22-.008-.439-.012-.659-.011h-.855c-.242 0-.461.004-.661.011a5.608 5.608 0 00-.467.034v.968c0 .227.008.439.024.636.014.2.052.362.112.491.038.09.123.156.255.196.13.042.3.081.512.118v.271a17.473 17.473 0 00-1.373-.044c-.459-.003-.917.012-1.374.044v-.271c.211-.038.38-.076.513-.118.13-.041.215-.107.253-.196a1.39 1.39 0 00.112-.491c.016-.198.024-.41.024-.636l-.001-2.252zm7.656 0c0-.227-.008-.442-.024-.648a1.4 1.4 0 00-.112-.502c-.038-.09-.123-.147-.253-.174a11.94 11.94 0 01-.513-.118v-.271c.203.016.418.027.648.034.701.022 1.402.01 2.101-.034v.271a10.86 10.86 0 01-.514.118c-.132.026-.216.085-.254.174a1.42 1.42 0 00-.111.502 8.729 8.729 0 00-.024.648v2.342l3.222-3.187a.53.53 0 00-.123-.327c-.047-.06-.135-.108-.266-.142l-.513-.128v-.271c.203.016.419.027.648.034.7.022 1.401.01 2.1-.034v.271c-.21.053-.381.092-.513.118-.13.026-.215.085-.254.174a1.443 1.443 0 00-.112.502 8.765 8.765 0 00-.021.648v2.251c0 .227.007.439.021.636.015.2.053.362.113.491.038.09.123.156.253.196.131.042.303.081.513.118v.271a17.473 17.473 0 00-1.373-.044c-.459-.003-.917.012-1.374.044v-.27c.211-.038.381-.076.513-.118.131-.041.215-.107.253-.196a1.39 1.39 0 00.112-.491c.016-.198.024-.41.024-.636v-2.454l-3.222 3.188a.748.748 0 00.113.415c.044.083.136.143.269.179.136.038.308.076.519.113v.271a17.473 17.473 0 00-1.373-.044c-.459-.003-.917.012-1.374.044v-.271c.211-.038.381-.076.513-.118.131-.041.216-.107.253-.196a1.39 1.39 0 00.112-.491c.016-.198.024-.41.024-.636l-.001-2.252zm14.831 1.136a4.346 4.346 0 00-.427-.023h-1.769c-.119 0-.251.008-.393.023l-.531 1.475c-.076.21-.129.365-.163.463a.823.823 0 00-.051.269c0 .053.028.098.079.136a.71.71 0 00.203.096c.083.025.173.05.27.072.098.024.193.045.281.068v.271a15.882 15.882 0 00-1.463-.068c-.35-.001-.7.022-1.048.068v-.271c.12-.014.24-.038.362-.068a.892.892 0 00.304-.134 1.17 1.17 0 00.326-.387c.116-.209.218-.426.304-.649l2.478-6.532h.293l2.635 6.611c.106.248.183.436.23.564a.7.7 0 00.221.305c.097.075.208.135.331.179a3.9 3.9 0 00.378.113v.27a3.256 3.256 0 00-.219-.024c-.102-.008-.213-.014-.338-.022a9.7 9.7 0 00-.66-.023c-.359 0-.69.009-.989.023-.302.014-.515.03-.643.045v-.271c.084-.014.17-.034.264-.056.094-.023.181-.051.26-.085a.905.905 0 00.196-.112.189.189 0 00.079-.153.85.85 0 00-.068-.302 22.747 22.747 0 00-.145-.362l-.587-1.509zm-.866-.539c.149 0 .274-.003.372-.007.09-.004.18-.013.269-.028l-1.092-2.793h-.045l-1.024 2.804c.083.016.164.025.247.025l1.273-.001zm4.414 2.827a.48.48 0 01.061-.227.945.945 0 01.366-.366.463.463 0 01.227-.062c.075 0 .149.021.226.062a.933.933 0 01.366.366.47.47 0 01.061.226.465.465 0 01-.061.224.956.956 0 01-.366.367.463.463 0 01-.227.062.47.47 0 01-.225-.062.943.943 0 01-.366-.367.451.451 0 01-.062-.223m9.572.146c-.44.137-.885.255-1.335.354a5.844 5.844 0 01-1.222.129 5.005 5.005 0 01-1.711-.281 3.902 3.902 0 01-1.34-.804 3.659 3.659 0 01-.878-1.262 4.147 4.147 0 01-.315-1.649c0-.632.104-1.202.315-1.713.197-.491.499-.932.884-1.294a3.978 3.978 0 011.345-.817 4.896 4.896 0 011.712-.287 6.321 6.321 0 011.52.169c.195.044.381.091.557.134.177.045.366.079.57.102a6.601 6.601 0 00-.113.665c-.03.24-.053.56-.068.957h-.293a7.838 7.838 0 00-.247-.715c-.091-.221-.187-.375-.294-.456a.944.944 0 00-.32-.164 3.374 3.374 0 00-.434-.101 5.156 5.156 0 00-.496-.057 8.184 8.184 0 00-.495-.017c-.489 0-.919.088-1.29.264a2.63 2.63 0 00-.93.727c-.247.308-.435.67-.563 1.087-.131.436-.195.89-.192 1.345 0 .467.068.918.203 1.357.136.438.338.829.609 1.166.27.337.61.609 1.019.816.408.208.884.311 1.424.311.316-.004.63-.047.935-.129.144-.039.286-.09.422-.152.132-.06.235-.125.31-.193.053-.051.11-.123.175-.213.064-.09.123-.19.18-.298.057-.11.109-.22.159-.332l.128-.304h.294c-.03.188-.066.436-.107.743l-.118.912m1.464-.146a.48.48 0 01.061-.227.92.92 0 01.159-.208.921.921 0 01.208-.158.463.463 0 01.227-.062c.074 0 .149.021.225.062a.933.933 0 01.366.366.47.47 0 01.061.226.465.465 0 01-.061.224.956.956 0 01-.366.367.47.47 0 01-.226.062.473.473 0 01-.226-.062.943.943 0 01-.366-.367.451.451 0 01-.062-.223m3.67-5.113v-.463c0-.164-.005-.326-.017-.479a4.28 4.28 0 00-.05-.423.793.793 0 00-.091-.281c-.059-.082-.166-.149-.315-.203a7.144 7.144 0 00-.541-.159v-.29c.204.014.447.03.733.044.285.016.555.024.811.024h5.856c.255 0 .526-.008.811-.024.284-.014.53-.03.732-.044v.293a6.825 6.825 0 00-.541.158c-.151.054-.254.121-.314.203a.85.85 0 00-.091.281 4 4 0 00-.05.423 6.917 6.917 0 00-.017.478v4.303c0 .164.006.323.017.478.009.153.027.295.05.422a.826.826 0 00.091.282c.06.082.164.15.314.203a6.4 6.4 0 00.541.157v.294a29.938 29.938 0 00-.732-.045 15.688 15.688 0 00-1.623 0c-.285.014-.529.03-.731.045v-.293c.21-.053.39-.106.539-.158.151-.053.256-.121.316-.203a.824.824 0 00.09-.282c.025-.14.042-.28.051-.422.012-.155.016-.313.016-.478V26.79a5.584 5.584 0 00-.466-.034c-.22-.008-.44-.012-.66-.011h-2.545c-.239 0-.459.004-.658.011a5.83 5.83 0 00-.467.034v5.508c0 .164.007.323.017.478.011.153.028.295.051.422a.801.801 0 00.089.282c.06.082.166.15.316.203.15.052.33.105.54.157v.294a29.938 29.938 0 00-.732-.045 15.688 15.688 0 00-1.622 0c-.285.014-.529.03-.733.045v-.293c.211-.053.391-.106.541-.158.149-.053.256-.121.315-.203a.826.826 0 00.091-.282c.023-.127.039-.269.05-.422.012-.155.017-.313.017-.478v-3.84h.001zm10.441.607c0 .084.047.212.145.389l.462.827.958 1.701h.044l.968-2.048c.106-.233.183-.413.237-.536a.868.868 0 00.078-.332c0-.044-.024-.088-.074-.129a.549.549 0 00-.191-.101 3.435 3.435 0 00-.548-.129v-.271c.402.03.804.045 1.207.045.316 0 .631-.015.945-.045v.271a2.237 2.237 0 00-.519.201c-.105.06-.21.198-.315.413-.142.29-.281.58-.417.872l-1.238 2.556a7.71 7.71 0 01-.418.778c-.119.187-.235.33-.349.427a.796.796 0 01-.337.187 1.7 1.7 0 01-.383.04c-.262 0-.521-.05-.765-.146 0-.308-.008-.582-.024-.822a13.377 13.377 0 00-.044-.564h.293c.061.142.117.274.174.394.058.121.115.222.176.305a.488.488 0 00.197.185.529.529 0 00.208.041.532.532 0 00.34-.119c.096-.079.193-.227.291-.446l-1.609-2.702a75.58 75.58 0 00-.553-.907c-.164-.265-.312-.43-.439-.491a6.774 6.774 0 00-.309-.118 2.447 2.447 0 00-.277-.083v-.271c.172.015.379.027.619.034.458.014.916.014 1.373 0 .241-.007.46-.019.654-.034v.271a4.767 4.767 0 01-.17.051 1.208 1.208 0 00-.186.066.585.585 0 00-.145.102.189.189 0 00-.059.138m13.039 3.334c0 .226.008.44.023.648.015.206.053.372.113.5.038.091.121.151.253.179.132.032.302.068.512.113v.271a15.48 15.48 0 00-.647-.034 25.178 25.178 0 00-.727-.011h-6.53c-.256 0-.498.005-.727.011-.23.008-.446.019-.648.034v-.27c.211-.046.382-.082.514-.113.131-.028.215-.09.253-.18a1.44 1.44 0 00.112-.5c.016-.215.024-.431.024-.648v-2.252c0-.226-.009-.438-.024-.637a1.422 1.422 0 00-.112-.489c-.038-.091-.123-.156-.253-.198a4.498 4.498 0 00-.514-.117v-.271c.203.015.418.028.648.034.7.022 1.401.01 2.099-.034v.271a4.43 4.43 0 00-.512.117c-.132.042-.217.108-.254.198-.067.155-.105.32-.112.489a7.975 7.975 0 00-.023.637v3.424c.113.014.268.026.467.033.199.008.419.011.66.011h1.192v-3.468a8.5 8.5 0 00-.022-.637 1.422 1.422 0 00-.112-.489c-.038-.091-.123-.156-.254-.198a4.481 4.481 0 00-.513-.117v-.271c.203.015.418.028.648.034.7.022 1.401.011 2.099-.034v.271a4.53 4.53 0 00-.513.117c-.13.042-.215.108-.253.198-.067.155-.105.32-.112.489a8.475 8.475 0 00-.024.637v3.468h1.194c.242 0 .461-.004.661-.011.196-.007.353-.019.465-.033v-3.424a8.5 8.5 0 00-.022-.637 1.47 1.47 0 00-.112-.489c-.038-.091-.123-.156-.255-.198a4.465 4.465 0 00-.512-.117v-.271c.203.015.418.028.648.034.7.022 1.401.011 2.099-.034v.271c-.21.038-.379.076-.512.117-.132.042-.215.108-.253.198-.067.155-.105.32-.113.489a8.473 8.473 0 00-.023.637l.004 2.252zm3.604 0c0 .226.008.437.024.636.014.198.052.362.111.49.038.09.123.152.255.186.13.032.3.077.512.129v.27a16.51 16.51 0 00-.693-.034 25.7 25.7 0 00-.68-.011c-.196 0-.423.005-.682.011-.259.008-.491.019-.694.034v-.27c.211-.052.382-.097.514-.129.131-.034.216-.096.253-.186a1.41 1.41 0 00.113-.491c.015-.198.023-.41.023-.635v-2.252a7.96 7.96 0 00-.024-.637 1.378 1.378 0 00-.112-.489c-.038-.091-.123-.152-.253-.186a45.826 45.826 0 00-.514-.129v-.271c.203.015.434.028.694.034.647.023 1.296.011 1.942-.034v.271a5.144 5.144 0 00-.456.129.321.321 0 00-.197.186 1.377 1.377 0 00-.111.489 8.475 8.475 0 00-.024.637l-.001 2.252zm.135-1.25l1.397-1.42.529-.54c.105-.105.159-.189.159-.248s-.059-.107-.175-.141a4.042 4.042 0 00-.434-.094v-.272c.196.015.366.028.513.034.147.008.307.011.48.011.217 0 .433-.004.647-.011.215-.007.415-.019.603-.034v.271c-.181.03-.33.061-.451.095a1.155 1.155 0 00-.338.157 3.23 3.23 0 00-.353.287c-.132.123-.299.282-.503.485l-1.114 1.104 1.677 1.958c.142.175.272.315.388.43.117.112.227.206.333.281.106.075.213.138.327.185.111.049.244.101.395.153v.27a13.842 13.842 0 00-.457-.04 4.564 4.564 0 00-1.12.04 72.735 72.735 0 00-.472-.564 24.603 24.603 0 01-.361-.428l-1.67-1.969zm5.406-1.002c0-.227-.008-.442-.024-.648a1.42 1.42 0 00-.111-.502c-.038-.09-.123-.147-.253-.174a12.284 12.284 0 01-.514-.118v-.271c.204.016.418.027.648.034.701.022 1.402.01 2.101-.034v.271c-.211.053-.382.092-.513.118-.132.026-.217.085-.255.174a1.398 1.398 0 00-.111.502 8.729 8.729 0 00-.024.648v2.342l3.222-3.187a.53.53 0 00-.123-.327c-.047-.06-.135-.108-.265-.142l-.514-.128v-.271c.204.016.42.027.648.034.701.022 1.402.01 2.101-.034v.271c-.21.053-.382.092-.513.118-.131.026-.217.085-.255.174a1.42 1.42 0 00-.111.502 9.35 9.35 0 00-.022.648v2.251c0 .227.007.439.022.636.014.2.053.362.112.491.038.09.123.156.254.196.13.042.302.081.513.118v.271a17.473 17.473 0 00-1.373-.044c-.459-.003-.917.012-1.374.044v-.27c.21-.038.38-.076.513-.118.13-.041.215-.107.253-.196.06-.128.097-.291.111-.491.016-.198.024-.41.024-.636v-2.454l-3.222 3.188c0 .052.007.112.017.179a.774.774 0 00.097.236c.044.083.135.143.269.179.135.038.308.076.519.113v.271a17.473 17.473 0 00-1.373-.044c-.459-.003-.917.012-1.374.044v-.271c.211-.038.38-.076.513-.118.13-.041.215-.107.253-.196a1.37 1.37 0 00.111-.491c.016-.198.024-.41.024-.636l-.001-2.252zm7.77 0c0-.227-.008-.442-.024-.648a1.4 1.4 0 00-.112-.502c-.038-.09-.123-.147-.253-.174a11.94 11.94 0 01-.513-.118v-.271c.203.016.417.027.648.034.701.022 1.402.01 2.101-.034v.271a10.86 10.86 0 01-.514.118c-.132.026-.216.085-.254.174a1.42 1.42 0 00-.111.502 8.729 8.729 0 00-.024.648v.743c.113.015.269.025.467.033.199.009.419.012.66.012h.855c.241 0 .46-.004.66-.012.156-.004.311-.015.466-.033v-.743c0-.227-.007-.442-.023-.648a1.465 1.465 0 00-.111-.502c-.038-.09-.123-.147-.255-.174a11.61 11.61 0 01-.512-.118v-.271c.203.016.418.027.648.034.7.022 1.4.011 2.099-.034v.271c-.21.053-.38.092-.512.118-.132.026-.216.085-.254.174a1.444 1.444 0 00-.113.502 9.35 9.35 0 00-.022.648v2.251c0 .227.008.439.023.636.015.2.054.362.113.491.038.09.121.156.253.196.132.042.302.081.512.118v.271a17.026 17.026 0 00-1.374-.044c-.458-.003-.916.012-1.373.044v-.27c.21-.038.38-.076.512-.118.132-.041.217-.107.255-.196a1.46 1.46 0 00.111-.491c.016-.198.023-.41.023-.636v-.968a5.584 5.584 0 00-.466-.034 16.16 16.16 0 00-.661-.011h-.854c-.241 0-.461.004-.66.011a5.608 5.608 0 00-.467.034v.968c0 .227.008.439.024.636.013.2.052.362.111.491.038.09.123.156.255.196.13.042.3.081.513.118v.271a17.498 17.498 0 00-1.374-.044c-.459-.003-.917.012-1.374.044v-.271c.21-.038.381-.076.513-.118.131-.041.215-.107.253-.196a1.39 1.39 0 00.112-.491c.016-.198.024-.41.024-.636l-.001-2.252zm10.035 2.241a3.975 3.975 0 00-.362-.024h-1.119c-.125 0-.26.009-.401.023l-.225.597c-.03.076-.06.16-.091.255a.846.846 0 00-.045.264c0 .052.025.098.073.134.05.038.11.071.181.097.071.025.154.047.247.068.094.017.186.038.278.06v.247c-.175-.017-.35-.032-.525-.043a10.725 10.725 0 00-.761-.024 5.384 5.384 0 00-.568.024c-.146.014-.277.03-.389.043v-.247c.107-.015.212-.037.315-.067a1.38 1.38 0 00.283-.113c.119-.059.213-.174.285-.344.073-.168.138-.325.198-.466l1.734-4.505h.271l1.857 4.561.17.378c.052.117.108.211.17.287a.618.618 0 00.257.163c.113.042.234.076.362.107v.247a1.82 1.82 0 00-.209-.016l-.303-.01-.333-.012a8.83 8.83 0 00-.281-.005c-.361 0-.657.004-.89.009a8.873 8.873 0 00-.541.034v-.247c.17-.03.338-.073.502-.128a.675.675 0 00.179-.097.161.161 0 00.073-.133.714.714 0 00-.061-.273 6.786 6.786 0 01-.095-.235l-.236-.609zm-.733-.474h.315c.059 0 .132-.007.213-.022l-.743-1.881h-.045l-.698 1.881c.082.015.169.022.258.022h.7z"/><g opacity=".4"><path d="M.941 36.524h49.265V.998H.941v35.526zm83.379 0h49.265V.998H84.32v35.526z"/><path d="M50.16 43.999h34.241V8.389H50.16v35.61zm27.273-7.077l.309-13.553h1.209l.304 13.553h-1.822zm-4.291 0l.311-13.553h1.208l.305 13.553h-1.824zm-4.27 0l.31-13.553h1.209l.305 13.553h-1.824zm-4.279 0l.31-13.553h1.208l.305 13.553h-1.823zm-4.281 0l.309-13.553h1.211l.303 13.553h-1.823zm-4.27 0l.309-13.553h1.21l.305 13.553h-1.824zM81.55 18.373l-.825 1.427-12.906-3.824-13.973 3.829-.827-1.425 14.807-3.575 13.724 3.568z"/></g></g></svg>