<svg xmlns="http://www.w3.org/2000/svg" viewBox="0 0 24 24"><path d="M11.861 11.597c1.456 0 2.716-.522 3.747-1.552 1.03-1.03 1.552-2.29 1.552-3.747 0-1.456-.522-2.716-1.552-3.746C14.578 1.522 13.317 1 11.861 1s-2.716.522-3.747 1.552-1.552 2.291-1.552 3.747.522 2.717 1.552 3.747c1.031 1.029 2.292 1.551 3.747 1.551zM9.026 3.464c.79-.79 1.718-1.175 2.835-1.175s2.044.384 2.835 1.175c.79.791 1.175 1.718 1.175 2.835s-.384 2.044-1.175 2.835c-.791.791-1.718 1.175-2.835 1.175s-2.044-.384-2.835-1.175c-.791-.79-1.175-1.718-1.175-2.835.001-1.117.385-2.045 1.175-2.835zM21.133 17.917c-.03-.429-.09-.896-.178-1.39a10.874 10.874 0 00-.342-1.398 6.924 6.924 0 00-.575-1.304 4.929 4.929 0 00-.866-1.129 3.818 3.818 0 00-1.245-.782 4.297 4.297 0 00-1.589-.288c-.225 0-.442.092-.861.365-.258.168-.56.363-.897.578-.288.184-.679.356-1.161.511-.47.152-.948.229-1.42.229-.471 0-.949-.077-1.42-.229-.482-.156-.872-.328-1.16-.511a102.02 102.02 0 01-.898-.579c-.419-.273-.636-.365-.861-.365a4.3 4.3 0 00-1.589.288 3.829 3.829 0 00-1.245.782 4.989 4.989 0 00-.865 1.131c-.239.42-.432.859-.575 1.304a12.716 12.716 0 00-.52 2.788c-.029.42-.044.857-.044 1.299 0 1.148.365 2.078 1.085 2.764C4.619 22.657 5.559 23 6.703 23h10.593c1.144 0 2.084-.343 2.796-1.02.72-.685 1.085-1.615 1.085-2.764 0-.443-.015-.88-.044-1.299zm-1.93 3.129c-.47.447-1.093.664-1.907.664H6.703c-.814 0-1.437-.217-1.907-.664-.461-.439-.685-1.037-.685-1.83 0-.412.014-.819.041-1.21.027-.383.081-.804.161-1.252.079-.442.18-.857.301-1.232.115-.36.273-.717.468-1.06.186-.327.4-.608.637-.834.221-.212.5-.385.828-.515.304-.12.645-.186 1.015-.196.045.024.126.07.256.155.265.173.571.37.908.585.381.243.871.462 1.457.651a5.89 5.89 0 001.816.292c.606 0 1.218-.098 1.816-.292.586-.189 1.077-.409 1.458-.652.346-.221.643-.412.908-.585.13-.085.211-.131.256-.155.371.01.712.076 1.016.196.328.13.607.303.828.515.236.226.45.507.637.835.195.343.353.7.468 1.06.12.376.222.791.301 1.232.08.448.135.87.161 1.252.027.389.041.796.041 1.21-.001.793-.225 1.392-.686 1.83z"/></svg>