<svg xmlns="http://www.w3.org/2000/svg" viewBox="0 0 32 32"><g><path d="M0 19.382h11.885v-8.57H0v8.57zm20.115 0H32v-8.57H20.115v8.57z"/><path d="M11.874 21.185h8.261v-8.591h-8.261v8.591zm6.58-1.707l.074-3.27h.292l.073 3.27h-.439zm-1.036 0l.075-3.27h.291l.074 3.27h-.44zm-1.03 0l.075-3.27h.292l.074 3.27h-.441zm-1.032 0l.075-3.27h.291l.074 3.27h-.44zm-1.033 0l.074-3.27h.292l.073 3.27h-.439zm-1.03 0l.074-3.27h.292l.074 3.27h-.44zm6.154-4.475l-.199.344-3.113-.923-3.371.924-.199-.344 3.572-.862 3.31.861z"/></g></svg>